<?xml version="1.0" encoding="UTF-8" standalone="no"?><!DOCTYPE svg PUBLIC "-//W3C//DTD SVG 1.1//EN" "http://www.w3.org/Graphics/SVG/1.1/DTD/svg11.dtd"><svg width="100%" height="100%" viewBox="0 0 697 757" version="1.1" xmlns="http://www.w3.org/2000/svg" xmlns:xlink="http://www.w3.org/1999/xlink" xml:space="preserve" xmlns:serif="http://www.serif.com/" style="fill-rule:evenodd;clip-rule:evenodd;stroke-linejoin:round;stroke-miterlimit:2;"><g><path d="M170.578,368.14l0,62.996c-16.955,16.8 -27.457,40.087 -27.457,65.811l0,20.592c0,34.973 19.426,65.45 48.049,81.221l0.584,0.309l0.137,0.086l0.446,0.24l0.155,0.086l0.497,0.257l0.069,0.034l0.601,0.309l0.068,0.035l0.532,0.274l0.137,0.069l0.464,0.223l0.154,0.086l0.549,0.257l0.035,0.017l0.6,0.292l0.103,0.051l0.498,0.241l0.772,0.343l0.601,0.275l0.618,0.274l0.6,0.257l0.172,0.069l0.48,0.206l0.138,0.052l0.617,0.257l0.601,0.257l0.154,0.052l0.481,0.189l0.171,0.068l0.498,0.189l0.12,0.051l0.635,0.241l0.034,0.017l0.584,0.206l0.154,0.051l0.481,0.172l0.171,0.069l0.55,0.188l0.068,0.035l0.635,0.206l0.103,0.034l0.532,0.189l0.172,0.051l0.48,0.155l0.172,0.051l0.618,0.189l0,0.017l0.652,0.189l0.137,0.051l0.686,0.206l0.498,0.137l0.155,0.035l1.304,0.377l0.137,0.035l0.515,0.137l0.171,0.034l0.532,0.138l0.121,0.034l0.669,0.171l0.652,0.155l0.154,0.034l0.515,0.12l0.172,0.035l0.566,0.137l0.772,0.154l0.052,0.018l1.287,0.257l0.154,0.034l0.652,0.12l0.018,0l0.686,0.138l0.103,0l0.583,0.103l0.155,0.034l0.549,0.086l0.137,0.034l0.669,0.103l0.704,0.103l0.12,0.017l0.566,0.069l0.155,0.034l0.566,0.069l0.12,0.017l0.704,0.086l0.824,0.103l0.549,0.051l0.171,0.017l0.584,0.069l0.103,0l0.703,0.069l0.035,0l0.652,0.051l0.171,0.017l0.532,0.052l0.172,0l0.618,0.051l0.068,0l0.721,0.035l0.103,0.017l0.584,0.017l0.188,0.017l0.532,0.017l0.172,0.017l0.652,0.018l0.051,0l0.704,0.034l0.686,0l0.224,0.017l227.908,0c40.962,0 75.747,-26.616 87.982,-63.494l50.658,0c-11.378,65.279 -68.402,114.975 -136.924,114.975l-231.735,0l-0.137,-0.017l-0.773,0l-0.206,-0.017l-0.36,0l-0.326,-0.017l-0.481,0l-0.171,-0.017l-0.24,0l-0.361,-0.017l-0.36,0l-0.172,-0.017l-0.48,-0.018l-0.24,-0.017l-0.172,0l-0.738,-0.034l-0.103,0c-0.326,-0.017 -0.652,-0.034 -0.978,-0.052l-0.017,0l-0.155,-0.017l-0.669,-0.034l-0.12,-0.017l-0.069,0l-0.223,-0.017l-0.463,-0.035l-0.189,-0.017l-0.137,0l-0.566,-0.051l-0.258,-0.018l-0.171,0l-0.172,-0.017l-0.275,-0.034l-0.36,-0.017l-0.189,-0.017l-0.12,-0.017l-0.206,-0.018l-0.463,-0.034l-0.206,-0.034l-0.086,0l-0.12,-0.017l-0.669,-0.069l-0.155,0c-0.635,-0.069 -1.27,-0.137 -1.905,-0.206l-0.051,-0.017l-0.172,-0.017l-0.549,-0.069l-0.171,-0.017l-0.103,-0.017l-0.189,-0.017l-0.412,-0.052l-0.24,-0.034l-0.137,-0.017l-0.172,-0.018l-0.309,-0.051l-0.343,-0.034l-0.172,-0.035l-0.36,-0.051l-0.429,-0.052l-0.189,-0.034l-0.086,0l-0.154,-0.034l-0.601,-0.086l-0.137,-0.017l-0.034,0c-0.635,-0.103 -1.27,-0.206 -1.905,-0.309l-0.017,0l-0.103,-0.017l-0.652,-0.12l-0.155,-0.018l-0.069,-0.017l-0.154,-0.034l-0.48,-0.069l-0.224,-0.051l-0.103,-0.017l-0.171,-0.035l-0.361,-0.068l-0.291,-0.052l-0.155,-0.034l-0.12,-0.017l-0.274,-0.052l-0.412,-0.086l-0.155,-0.017l-0.085,-0.017l-0.206,-0.051l-0.532,-0.103l-0.138,-0.018l-0.051,-0.017c-0.927,-0.188 -1.871,-0.394 -2.797,-0.6l-0.035,-0.017l-0.137,-0.018l-0.532,-0.137l-0.206,-0.034l-0.086,-0.017l-0.154,-0.035l-0.395,-0.103l-0.274,-0.068l-0.12,-0.035l-0.138,-0.017l-0.309,-0.086l-0.36,-0.085l-0.154,-0.035l-0.086,-0.017l-0.223,-0.069l-0.498,-0.12l-0.137,-0.034l-0.052,-0.017l-0.154,-0.034l-0.738,-0.189c-0.618,-0.172 -1.236,-0.343 -1.853,-0.515l-0.035,0l-0.068,-0.017l-0.618,-0.172l-0.172,-0.051l-0.068,-0.017l-0.138,-0.052l-0.446,-0.12l-0.257,-0.069l-0.086,-0.034l-0.137,-0.034l-0.344,-0.103l-0.326,-0.103l-0.137,-0.035l-0.36,-0.12l-0.429,-0.137l-0.206,-0.051l-0.172,-0.052l-0.6,-0.189l-0.086,-0.034l-0.017,0c-0.91,-0.292 -1.802,-0.583 -2.695,-0.892l-0.875,-0.292l-0.086,-0.034l-0.12,-0.035l-0.377,-0.137l-0.309,-0.103l-0.103,-0.051l-0.103,-0.035l-0.292,-0.103l-0.394,-0.137l-0.121,-0.052l-0.068,-0.017l-0.223,-0.085l-0.515,-0.189l-0.103,-0.035l-0.034,-0.017c-0.876,-0.326 -1.768,-0.669 -2.643,-1.012l-0.017,-0.017l-0.069,-0.018l-0.583,-0.223l-0.189,-0.085l-0.052,-0.018l-0.12,-0.051l-0.412,-0.172l-0.274,-0.103l-0.086,-0.051l-0.103,-0.034l-0.326,-0.138l-0.36,-0.137l-0.103,-0.051l-0.086,-0.035l-0.223,-0.103l-0.481,-0.189l-0.086,-0.051l-0.051,-0.017l-0.172,-0.069l-0.669,-0.292c-0.583,-0.257 -1.167,-0.514 -1.75,-0.789l-0.669,-0.292l-0.155,-0.085l-0.051,-0.018l-0.086,-0.051l-0.464,-0.206l-0.24,-0.103l-0.086,-0.051l-0.085,-0.035l-0.361,-0.171l-0.309,-0.155l-0.103,-0.034l-0.085,-0.052l-0.258,-0.12l-0.515,-0.257l-0.051,-0.017l-0.189,-0.103l-0.635,-0.309c-0.841,-0.412 -1.682,-0.841 -2.522,-1.27l-0.018,-0.017l-0.068,-0.035l-0.515,-0.274l-0.206,-0.103l-0.051,-0.034l-0.103,-0.052l-0.378,-0.206l-0.292,-0.154l-0.085,-0.035l-0.069,-0.051l-0.292,-0.154l-0.377,-0.206l-0.086,-0.052l-0.069,-0.034l-0.206,-0.12l-0.497,-0.275l-0.069,-0.034l-0.017,0c-0.824,-0.464 -1.648,-0.944 -2.471,-1.407l-0.773,-0.464l-0.051,-0.034l-0.069,-0.034l-0.429,-0.258l-0.24,-0.154l-0.069,-0.035l-0.085,-0.051l-0.326,-0.189l-0.326,-0.206l-0.086,-0.051l-0.052,-0.035l-0.24,-0.154l-0.446,-0.275l-0.103,-0.051c-1.047,-0.669 -2.111,-1.339 -3.141,-2.025l-0.034,-0.017l-0.034,-0.034l-0.481,-0.309l-0.223,-0.155l-0.051,-0.017l-0.069,-0.051l-0.343,-0.241l-0.36,-0.24l-0.069,-0.051l-0.275,-0.172l-0.377,-0.275l-0.069,-0.051l-0.034,-0.017l-0.206,-0.137l-0.549,-0.395c-0.772,-0.532 -1.545,-1.081 -2.3,-1.648l-0.549,-0.394l-0.189,-0.138l-0.034,-0.034l-0.051,-0.034l-0.395,-0.292l-0.258,-0.206l-0.051,-0.034l-0.069,-0.034l-0.291,-0.224l-0.344,-0.274l-0.103,-0.069l-0.205,-0.171l-0.515,-0.378c-0.996,-0.772 -1.974,-1.562 -2.935,-2.351l-0.017,-0.017l-0.034,-0.017l-0.429,-0.343l-0.24,-0.206l-0.035,-0.035l-0.051,-0.034l-0.309,-0.275l-0.309,-0.257l-0.052,-0.034l-0.034,-0.035l-0.257,-0.206l-0.395,-0.343l-0.051,-0.051c-0.961,-0.807 -1.905,-1.63 -2.832,-2.471l-0.48,-0.429l-0.206,-0.189l-0.052,-0.052l-0.36,-0.326l-0.275,-0.257l-0.068,-0.069l-0.258,-0.24l-0.377,-0.343l-0.035,-0.034c-1.149,-1.082 -2.265,-2.163 -3.38,-3.278l-0.652,-0.652l-0.018,-0.035l-0.034,-0.017l-0.274,-0.309l-0.326,-0.326l-0.035,-0.017l-0.017,-0.017c-1.304,-1.356 -2.591,-2.728 -3.844,-4.136l-0.326,-0.377l-0.326,-0.361c-21.588,-24.488 -34.699,-56.646 -34.699,-91.843l0,-30.888c0,-53.85 30.683,-100.578 75.507,-123.659l0,0Zm-65.931,242.135c14.689,21.673 34.681,39.452 58.123,51.481l-67.819,0l0,-51.481l9.696,0Zm203.215,-336.415l-68.642,0l0,319.185l-3.432,0c-16.68,0 -32.108,-5.422 -44.618,-14.603l0,-352.631l116.692,0l0,48.049Zm-164.741,-61.778l-48.05,0l0,-116.725l338.062,0.034c76.725,0 139,62.293 139,139l0,30.889c0,40.585 -17.435,77.136 -45.2,102.551c38.302,19.494 66.394,56.218 74.013,99.943l-50.658,0c-12.235,-36.861 -47.02,-63.494 -87.982,-63.494l-202.494,0l0,-51.482l171.605,0c51.156,0 92.667,-41.528 92.667,-92.666l0,-20.593c0,-51.138 -41.511,-92.667 -92.667,-92.667l-288.296,-0.017l0,65.227Z" style="fill:#f2f3f3;"/><path d="M675.944,736.399l-655.875,0l0,-716.33l655.875,0l0,716.33Zm-630.875,-691.33l0,666.33l605.875,0l0,-666.33l-605.875,0Z" style="fill:#f2f3f3;"/></g></svg>