<?xml version="1.0" encoding="UTF-8" standalone="no"?><!DOCTYPE svg PUBLIC "-//W3C//DTD SVG 1.1//EN" "http://www.w3.org/Graphics/SVG/1.1/DTD/svg11.dtd"><svg width="100%" height="100%" viewBox="0 0 189 42" version="1.1" xmlns="http://www.w3.org/2000/svg" xmlns:xlink="http://www.w3.org/1999/xlink" xml:space="preserve" xmlns:serif="http://www.serif.com/" style="fill-rule:evenodd;clip-rule:evenodd;stroke-linejoin:round;stroke-miterlimit:2;"><g id="Horizontal--new-" serif:id="Horizontal (new)"><g transform="matrix(1.3407,0,0,1.3246,-6.8224,-161.272)"><g transform="matrix(13.9957,0,0,13.9957,33.632,140.365)"><path d="M0.461,-0.37c0.04,0.01 0.07,0.03 0.09,0.06c0.02,0.029 0.03,0.063 0.03,0.102c0,0.067 -0.022,0.119 -0.065,0.155c-0.043,0.035 -0.104,0.053 -0.183,0.053l-0.262,0l0,-0.711l0.244,0c0.081,0 0.142,0.016 0.185,0.048c0.043,0.031 0.064,0.08 0.064,0.144c0,0.034 -0.008,0.063 -0.026,0.089c-0.018,0.026 -0.043,0.046 -0.077,0.06Zm-0.263,-0.239l0,0.197l0.118,0c0.039,0 0.069,-0.009 0.09,-0.026c0.022,-0.017 0.032,-0.041 0.032,-0.073c0,-0.034 -0.009,-0.059 -0.029,-0.075c-0.02,-0.015 -0.051,-0.023 -0.094,-0.023l-0.117,0Zm0.135,0.507c0.04,0 0.07,-0.009 0.091,-0.029c0.021,-0.019 0.031,-0.045 0.031,-0.077c0,-0.074 -0.039,-0.111 -0.116,-0.111l-0.141,0l0,0.217l0.135,0Z" style="fill:#f2f3f3;fill-rule:nonzero;"/></g><g transform="matrix(13.9957,0,0,13.9957,42.4118,140.365)"><path d="M0.61,-0.006l0,0.006l-0.136,0l-0.141,-0.272l-0.135,0l0,0.272l-0.127,0l0,-0.711l0.252,0c0.082,0 0.146,0.018 0.19,0.055c0.045,0.037 0.068,0.09 0.068,0.159c0,0.047 -0.012,0.087 -0.034,0.12c-0.023,0.032 -0.054,0.057 -0.096,0.075l0.159,0.296Zm-0.412,-0.368l0.126,0c0.042,0 0.074,-0.011 0.097,-0.032c0.022,-0.021 0.033,-0.049 0.033,-0.084c0,-0.038 -0.011,-0.067 -0.032,-0.088c-0.022,-0.02 -0.054,-0.031 -0.099,-0.031l-0.125,0l0,0.235Z" style="fill:#f2f3f3;fill-rule:nonzero;"/></g><g transform="matrix(13.9957,0,0,13.9957,51.1796,140.365)"><path d="M0.47,-0.163l-0.273,0l-0.056,0.163l-0.133,0l0.268,-0.711l0.114,0l0.269,0.711l-0.132,0l-0.057,-0.163Zm-0.035,-0.102l-0.102,-0.292l-0.101,0.292l0.203,0Z" style="fill:#f2f3f3;fill-rule:nonzero;"/></g><g transform="matrix(13.9957,0,0,13.9957,60.3678,140.365)"><path d="M0.511,0l-0.313,-0.5l0,0.5l-0.127,0l0,-0.711l0.127,0l0.314,0.501l0,-0.501l0.125,0l0,0.711l-0.126,0Z" style="fill:#f2f3f3;fill-rule:nonzero;"/></g><g transform="matrix(13.9957,0,0,13.9957,70.0942,140.365)"><path d="M0.282,-0.711c0.063,0 0.119,0.014 0.168,0.042c0.048,0.028 0.086,0.068 0.113,0.119c0.027,0.051 0.04,0.11 0.04,0.177l0,0.035c0,0.068 -0.013,0.127 -0.04,0.178c-0.027,0.051 -0.065,0.09 -0.114,0.118c-0.049,0.028 -0.107,0.042 -0.172,0.042l-0.206,0l0,-0.711l0.211,0Zm0.194,0.337c0,-0.076 -0.017,-0.134 -0.05,-0.174c-0.033,-0.041 -0.081,-0.061 -0.144,-0.061l-0.084,0l0,0.507l0.079,0c0.065,0 0.115,-0.02 0.149,-0.061c0.033,-0.042 0.05,-0.1 0.05,-0.175l0,-0.036Z" style="fill:#f2f3f3;fill-rule:nonzero;"/></g><g transform="matrix(13.9957,0,0,13.9957,79.0911,140.365)"><path d="M0.641,-0.337c0,0.071 -0.012,0.132 -0.037,0.184c-0.024,0.053 -0.059,0.093 -0.104,0.121c-0.044,0.028 -0.096,0.042 -0.154,0.042c-0.058,0 -0.11,-0.014 -0.155,-0.042c-0.045,-0.028 -0.08,-0.068 -0.105,-0.121c-0.025,-0.052 -0.037,-0.114 -0.037,-0.184l0,-0.036c0,-0.071 0.012,-0.132 0.037,-0.185c0.025,-0.052 0.06,-0.092 0.105,-0.12c0.044,-0.029 0.096,-0.043 0.154,-0.043c0.058,0 0.11,0.014 0.155,0.042c0.045,0.028 0.079,0.068 0.104,0.121c0.025,0.052 0.037,0.114 0.037,0.185l0,0.036Zm-0.127,-0.037c0,-0.078 -0.015,-0.138 -0.044,-0.18c-0.029,-0.041 -0.071,-0.062 -0.125,-0.062c-0.035,0 -0.065,0.009 -0.091,0.028c-0.025,0.018 -0.044,0.046 -0.058,0.082c-0.013,0.036 -0.02,0.08 -0.02,0.132l0,0.037c0,0.051 0.007,0.095 0.02,0.132c0.014,0.036 0.034,0.064 0.059,0.083c0.026,0.018 0.056,0.028 0.091,0.028c0.054,0 0.095,-0.021 0.124,-0.063c0.03,-0.041 0.044,-0.102 0.044,-0.18l0,-0.037Z" style="fill:#f2f3f3;fill-rule:nonzero;"/></g><g transform="matrix(13.9957,0,0,13.9957,88.4742,140.365)"><path d="M0.511,0l-0.313,-0.5l0,0.5l-0.127,0l0,-0.711l0.127,0l0.314,0.501l0,-0.501l0.125,0l0,0.711l-0.126,0Z" style="fill:#f2f3f3;fill-rule:nonzero;"/></g><g transform="matrix(13.9957,0,0,13.9957,101.896,140.365)"><path d="M0.616,-0.232c-0.005,0.047 -0.018,0.089 -0.04,0.126c-0.022,0.036 -0.054,0.064 -0.094,0.085c-0.04,0.021 -0.089,0.031 -0.146,0.031c-0.058,0 -0.109,-0.014 -0.152,-0.041c-0.043,-0.028 -0.077,-0.067 -0.1,-0.118c-0.023,-0.051 -0.035,-0.11 -0.035,-0.178l0,-0.056c0,-0.068 0.012,-0.128 0.036,-0.179c0.024,-0.05 0.058,-0.09 0.102,-0.117c0.044,-0.028 0.095,-0.042 0.154,-0.042c0.056,0 0.103,0.011 0.143,0.031c0.039,0.021 0.07,0.05 0.092,0.087c0.022,0.037 0.035,0.079 0.04,0.128l-0.126,0c-0.005,-0.048 -0.019,-0.083 -0.042,-0.107c-0.023,-0.024 -0.058,-0.036 -0.107,-0.036c-0.054,0 -0.095,0.02 -0.123,0.06c-0.028,0.04 -0.042,0.098 -0.042,0.174l0,0.057c0,0.074 0.013,0.132 0.039,0.173c0.026,0.041 0.066,0.061 0.121,0.061c0.034,0 0.062,-0.005 0.083,-0.016c0.022,-0.01 0.038,-0.026 0.049,-0.046c0.01,-0.02 0.018,-0.046 0.022,-0.077l0.126,0Z" style="fill:#f2f3f3;fill-rule:nonzero;"/></g><g transform="matrix(13.9957,0,0,13.9957,110.62,140.365)"><path d="M0.641,-0.337c0,0.071 -0.012,0.132 -0.037,0.184c-0.024,0.053 -0.059,0.093 -0.104,0.121c-0.044,0.028 -0.096,0.042 -0.154,0.042c-0.058,0 -0.11,-0.014 -0.155,-0.042c-0.045,-0.028 -0.08,-0.068 -0.105,-0.121c-0.025,-0.052 -0.037,-0.114 -0.037,-0.184l0,-0.036c0,-0.071 0.012,-0.132 0.037,-0.185c0.025,-0.052 0.06,-0.092 0.105,-0.12c0.044,-0.029 0.096,-0.043 0.154,-0.043c0.058,0 0.11,0.014 0.155,0.042c0.045,0.028 0.079,0.068 0.104,0.121c0.025,0.052 0.037,0.114 0.037,0.185l0,0.036Zm-0.127,-0.037c0,-0.078 -0.015,-0.138 -0.044,-0.18c-0.029,-0.041 -0.071,-0.062 -0.125,-0.062c-0.035,0 -0.065,0.009 -0.091,0.028c-0.025,0.018 -0.044,0.046 -0.058,0.082c-0.013,0.036 -0.02,0.08 -0.02,0.132l0,0.037c0,0.051 0.007,0.095 0.02,0.132c0.014,0.036 0.034,0.064 0.059,0.083c0.026,0.018 0.056,0.028 0.091,0.028c0.054,0 0.095,-0.021 0.124,-0.063c0.03,-0.041 0.044,-0.102 0.044,-0.18l0,-0.037Z" style="fill:#f2f3f3;fill-rule:nonzero;"/></g><g transform="matrix(13.9957,0,0,13.9957,120.003,140.365)"><path d="M0.61,-0.006l0,0.006l-0.136,0l-0.141,-0.272l-0.135,0l0,0.272l-0.127,0l0,-0.711l0.252,0c0.082,0 0.146,0.018 0.19,0.055c0.045,0.037 0.068,0.09 0.068,0.159c0,0.047 -0.012,0.087 -0.034,0.12c-0.023,0.032 -0.054,0.057 -0.096,0.075l0.159,0.296Zm-0.412,-0.368l0.126,0c0.042,0 0.074,-0.011 0.097,-0.032c0.022,-0.021 0.033,-0.049 0.033,-0.084c0,-0.038 -0.011,-0.067 -0.032,-0.088c-0.022,-0.02 -0.054,-0.031 -0.099,-0.031l-0.125,0l0,0.235Z" style="fill:#f2f3f3;fill-rule:nonzero;"/></g><g transform="matrix(13.9957,0,0,13.9957,128.84,140.365)"><path d="M0.538,-0.102l0,0.102l-0.467,0l0,-0.711l0.464,0l0,0.102l-0.337,0l0,0.193l0.29,0l0,0.1l-0.29,0l0,0.214l0.34,0Z" style="fill:#f2f3f3;fill-rule:nonzero;"/></g><g transform="matrix(13.9957,0,0,13.9957,136.894,140.365)"><path d="M0.466,-0.711l0.14,0l-0.237,0.45l0,0.261l-0.128,0l0,-0.261l-0.238,-0.45l0.141,0l0.161,0.335l0.161,-0.335Z" style="fill:#f2f3f3;fill-rule:nonzero;"/></g></g><g transform="matrix(1.01911,0,0,0.955951,38.6166,38.87)"><g transform="matrix(0.938025,0,0,1,0,0)"><g transform="matrix(14,0,0,14,0,0)"><path d="M0.862,-0.711l-0.163,0.711l-0.123,0l-0.132,-0.514l-0.135,0.514l-0.123,0l-0.163,-0.711l0.125,0l0.109,0.53l0.134,-0.53l0.106,0l0.131,0.532l0.108,-0.532l0.126,0Z" style="fill:#f2f3f3;fill-rule:nonzero;"/></g></g><g transform="matrix(0.938025,0,0,1,0.683164,0)"><g transform="matrix(14,0,0,14,11.0232,0)"><path d="M0.507,-0.226l-0.344,0c0.002,0.027 0.009,0.051 0.021,0.072c0.011,0.021 0.027,0.037 0.047,0.049c0.02,0.011 0.044,0.017 0.07,0.017c0.055,0 0.099,-0.021 0.132,-0.064l0.065,0.063c-0.019,0.028 -0.046,0.052 -0.08,0.07c-0.034,0.019 -0.076,0.029 -0.124,0.029c-0.051,0 -0.096,-0.011 -0.135,-0.034c-0.038,-0.022 -0.068,-0.052 -0.088,-0.091c-0.021,-0.039 -0.031,-0.082 -0.031,-0.131l0,-0.02c0,-0.054 0.01,-0.102 0.031,-0.143c0.021,-0.041 0.05,-0.073 0.086,-0.095c0.037,-0.023 0.078,-0.034 0.123,-0.034c0.05,0 0.092,0.011 0.126,0.033c0.034,0.021 0.059,0.052 0.076,0.091c0.016,0.039 0.025,0.085 0.025,0.137l0,0.051Zm-0.12,-0.097c-0.002,-0.034 -0.011,-0.062 -0.028,-0.084c-0.017,-0.022 -0.043,-0.033 -0.079,-0.033c-0.032,0 -0.058,0.011 -0.077,0.033c-0.02,0.022 -0.032,0.053 -0.038,0.093l0.222,0l0,-0.009Z" style="fill:#f2f3f3;fill-rule:nonzero;"/></g><g transform="matrix(14,0,0,14,18.5428,0)"><path d="M0.319,-0.538c0.044,0 0.082,0.011 0.113,0.034c0.031,0.022 0.054,0.054 0.07,0.094c0.016,0.041 0.023,0.088 0.023,0.141l0,0.01c0,0.053 -0.008,0.099 -0.023,0.14c-0.016,0.04 -0.039,0.072 -0.07,0.095c-0.031,0.022 -0.069,0.034 -0.112,0.034c-0.061,0 -0.109,-0.023 -0.144,-0.067l-0.006,0.057l-0.11,0l0,-0.75l0.122,0l0,0.272c0.033,-0.04 0.079,-0.06 0.137,-0.06Zm0.085,0.269c0,-0.051 -0.009,-0.092 -0.027,-0.123c-0.018,-0.031 -0.047,-0.047 -0.089,-0.047c-0.05,0 -0.086,0.022 -0.106,0.066l0,0.216c0.02,0.045 0.056,0.068 0.107,0.068c0.041,0 0.07,-0.016 0.088,-0.046c0.018,-0.03 0.027,-0.072 0.027,-0.124l0,-0.01Z" style="fill:#f2f3f3;fill-rule:nonzero;"/></g></g><g transform="matrix(0.938025,0,0,1,1.78118,0)"><g transform="matrix(14,0,0,14,28.7404,0)"><path d="M0.282,-0.711c0.063,0 0.119,0.014 0.168,0.042c0.048,0.028 0.086,0.068 0.113,0.119c0.027,0.051 0.04,0.11 0.04,0.177l0,0.035c0,0.068 -0.013,0.127 -0.04,0.178c-0.027,0.051 -0.065,0.09 -0.114,0.118c-0.049,0.028 -0.107,0.042 -0.172,0.042l-0.206,0l0,-0.711l0.211,0Zm0.194,0.337c0,-0.076 -0.017,-0.134 -0.05,-0.174c-0.033,-0.041 -0.081,-0.061 -0.144,-0.061l-0.084,0l0,0.507l0.079,0c0.065,0 0.115,-0.02 0.149,-0.061c0.033,-0.042 0.05,-0.1 0.05,-0.175l0,-0.036Z" style="fill:#f2f3f3;fill-rule:nonzero;"/></g></g><g transform="matrix(0.938025,0,0,1,2.29623,0)"><g transform="matrix(14,0,0,14,37.0509,0)"><path d="M0.507,-0.226l-0.344,0c0.002,0.027 0.009,0.051 0.021,0.072c0.011,0.021 0.027,0.037 0.047,0.049c0.02,0.011 0.044,0.017 0.07,0.017c0.055,0 0.099,-0.021 0.132,-0.064l0.065,0.063c-0.019,0.028 -0.046,0.052 -0.08,0.07c-0.034,0.019 -0.076,0.029 -0.124,0.029c-0.051,0 -0.096,-0.011 -0.135,-0.034c-0.038,-0.022 -0.068,-0.052 -0.088,-0.091c-0.021,-0.039 -0.031,-0.082 -0.031,-0.131l0,-0.02c0,-0.054 0.01,-0.102 0.031,-0.143c0.021,-0.041 0.05,-0.073 0.086,-0.095c0.037,-0.023 0.078,-0.034 0.123,-0.034c0.05,0 0.092,0.011 0.126,0.033c0.034,0.021 0.059,0.052 0.076,0.091c0.016,0.039 0.025,0.085 0.025,0.137l0,0.051Zm-0.12,-0.097c-0.002,-0.034 -0.011,-0.062 -0.028,-0.084c-0.017,-0.022 -0.043,-0.033 -0.079,-0.033c-0.032,0 -0.058,0.011 -0.077,0.033c-0.02,0.022 -0.032,0.053 -0.038,0.093l0.222,0l0,-0.009Z" style="fill:#f2f3f3;fill-rule:nonzero;"/></g></g><g transform="matrix(0.938025,0,0,1,2.73337,0)"><g transform="matrix(14,0,0,14,44.1044,0)"><path d="M0.484,-0.528l-0.183,0.528l-0.107,0l-0.183,-0.528l0.126,0l0.112,0.374l0.109,-0.374l0.126,0Z" style="fill:#f2f3f3;fill-rule:nonzero;"/></g></g><g transform="matrix(0.938025,0,0,1,3.12939,0)"><g transform="matrix(14,0,0,14,50.4944,0)"><path d="M0.507,-0.226l-0.344,0c0.002,0.027 0.009,0.051 0.021,0.072c0.011,0.021 0.027,0.037 0.047,0.049c0.02,0.011 0.044,0.017 0.07,0.017c0.055,0 0.099,-0.021 0.132,-0.064l0.065,0.063c-0.019,0.028 -0.046,0.052 -0.08,0.07c-0.034,0.019 -0.076,0.029 -0.124,0.029c-0.051,0 -0.096,-0.011 -0.135,-0.034c-0.038,-0.022 -0.068,-0.052 -0.088,-0.091c-0.021,-0.039 -0.031,-0.082 -0.031,-0.131l0,-0.02c0,-0.054 0.01,-0.102 0.031,-0.143c0.021,-0.041 0.05,-0.073 0.086,-0.095c0.037,-0.023 0.078,-0.034 0.123,-0.034c0.05,0 0.092,0.011 0.126,0.033c0.034,0.021 0.059,0.052 0.076,0.091c0.016,0.039 0.025,0.085 0.025,0.137l0,0.051Zm-0.12,-0.097c-0.002,-0.034 -0.011,-0.062 -0.028,-0.084c-0.017,-0.022 -0.043,-0.033 -0.079,-0.033c-0.032,0 -0.058,0.011 -0.077,0.033c-0.02,0.022 -0.032,0.053 -0.038,0.093l0.222,0l0,-0.009Z" style="fill:#f2f3f3;fill-rule:nonzero;"/></g></g><g transform="matrix(0.938025,0,0,1,3.56653,0)"><g transform="matrix(14,0,0,14,57.5479,0)"><rect x="0.068" y="-0.75" width="0.122" height="0.75" style="fill:#f2f3f3;fill-rule:nonzero;"/></g></g><g transform="matrix(0.938025,0,0,1,3.76742,0)"><g transform="matrix(14,0,0,14,60.7894,0)"><path d="M0.038,-0.269c0,-0.051 0.01,-0.098 0.03,-0.138c0.019,-0.041 0.048,-0.073 0.085,-0.096c0.037,-0.023 0.081,-0.035 0.131,-0.035c0.05,0 0.094,0.012 0.132,0.035c0.037,0.023 0.066,0.055 0.085,0.096c0.02,0.04 0.03,0.087 0.03,0.138l0,0.01c0,0.052 -0.01,0.098 -0.03,0.138c-0.019,0.041 -0.048,0.073 -0.085,0.096c-0.037,0.023 -0.081,0.035 -0.131,0.035c-0.051,0 -0.095,-0.012 -0.132,-0.035c-0.037,-0.023 -0.066,-0.055 -0.085,-0.096c-0.02,-0.04 -0.03,-0.086 -0.03,-0.138l0,-0.01Zm0.122,0.01c0,0.05 0.01,0.091 0.031,0.123c0.021,0.032 0.052,0.048 0.094,0.048c0.027,0 0.051,-0.007 0.069,-0.023c0.019,-0.015 0.033,-0.035 0.042,-0.061c0.009,-0.026 0.013,-0.055 0.013,-0.087l0,-0.01c0,-0.032 -0.004,-0.061 -0.013,-0.087c-0.009,-0.026 -0.023,-0.046 -0.042,-0.061c-0.019,-0.016 -0.042,-0.023 -0.07,-0.023c-0.028,0 -0.051,0.007 -0.07,0.023c-0.018,0.015 -0.032,0.035 -0.041,0.061c-0.009,0.026 -0.013,0.055 -0.013,0.087l0,0.01Z" style="fill:#f2f3f3;fill-rule:nonzero;"/></g></g><g transform="matrix(0.938025,0,0,1,4.21412,0)"><g transform="matrix(14,0,0,14,67.9971,0)"><path d="M0.318,-0.538c0.044,0 0.081,0.011 0.112,0.033c0.032,0.022 0.055,0.054 0.071,0.094c0.016,0.04 0.024,0.087 0.024,0.141l0,0.011c0,0.051 -0.008,0.098 -0.024,0.138c-0.016,0.041 -0.04,0.073 -0.071,0.096c-0.031,0.023 -0.068,0.035 -0.111,0.035c-0.056,0 -0.102,-0.019 -0.137,-0.057l0,0.25l-0.122,0l0,-0.731l0.112,0l0.005,0.053c0.035,-0.042 0.082,-0.063 0.141,-0.063Zm0.085,0.268c0,-0.05 -0.01,-0.09 -0.029,-0.122c-0.02,-0.031 -0.05,-0.047 -0.09,-0.047c-0.047,0 -0.082,0.02 -0.102,0.059l0,0.232c0.021,0.04 0.055,0.06 0.103,0.06c0.04,0 0.069,-0.016 0.089,-0.048c0.02,-0.032 0.029,-0.073 0.029,-0.123l0,-0.011Z" style="fill:#f2f3f3;fill-rule:nonzero;"/></g></g><g transform="matrix(0.938025,0,0,1,4.67232,0)"><g transform="matrix(14,0,0,14,75.3905,0)"><path d="M0.637,-0.538c0.056,0 0.099,0.016 0.128,0.047c0.03,0.031 0.045,0.081 0.045,0.149l0,0.342l-0.122,0l0,-0.342c0,-0.036 -0.008,-0.062 -0.023,-0.076c-0.016,-0.014 -0.039,-0.021 -0.07,-0.021c-0.025,0 -0.046,0.007 -0.064,0.021c-0.017,0.013 -0.029,0.032 -0.036,0.055l0.001,0.011l0,0.352l-0.122,0l0,-0.341c0,-0.035 -0.008,-0.061 -0.024,-0.076c-0.015,-0.014 -0.039,-0.022 -0.069,-0.022c-0.047,0 -0.08,0.019 -0.099,0.057l0,0.382l-0.122,0l0,-0.528l0.114,0l0.004,0.055c0.018,-0.021 0.04,-0.037 0.065,-0.048c0.026,-0.011 0.055,-0.017 0.088,-0.017c0.033,0 0.062,0.007 0.086,0.02c0.025,0.013 0.044,0.033 0.058,0.06c0.018,-0.025 0.04,-0.045 0.067,-0.059c0.028,-0.014 0.059,-0.021 0.095,-0.021Z" style="fill:#f2f3f3;fill-rule:nonzero;"/></g></g><g transform="matrix(0.938025,0,0,1,5.36381,0)"><g transform="matrix(14,0,0,14,86.5481,0)"><path d="M0.507,-0.226l-0.344,0c0.002,0.027 0.009,0.051 0.021,0.072c0.011,0.021 0.027,0.037 0.047,0.049c0.02,0.011 0.044,0.017 0.07,0.017c0.055,0 0.099,-0.021 0.132,-0.064l0.065,0.063c-0.019,0.028 -0.046,0.052 -0.08,0.07c-0.034,0.019 -0.076,0.029 -0.124,0.029c-0.051,0 -0.096,-0.011 -0.135,-0.034c-0.038,-0.022 -0.068,-0.052 -0.088,-0.091c-0.021,-0.039 -0.031,-0.082 -0.031,-0.131l0,-0.02c0,-0.054 0.01,-0.102 0.031,-0.143c0.021,-0.041 0.05,-0.073 0.086,-0.095c0.037,-0.023 0.078,-0.034 0.123,-0.034c0.05,0 0.092,0.011 0.126,0.033c0.034,0.021 0.059,0.052 0.076,0.091c0.016,0.039 0.025,0.085 0.025,0.137l0,0.051Zm-0.12,-0.097c-0.002,-0.034 -0.011,-0.062 -0.028,-0.084c-0.017,-0.022 -0.043,-0.033 -0.079,-0.033c-0.032,0 -0.058,0.011 -0.077,0.033c-0.02,0.022 -0.032,0.053 -0.038,0.093l0.222,0l0,-0.009Z" style="fill:#f2f3f3;fill-rule:nonzero;"/></g><g transform="matrix(14,0,0,14,94.0676,0)"><path d="M0.33,-0.538c0.054,0 0.095,0.015 0.124,0.047c0.029,0.031 0.044,0.081 0.044,0.15l0,0.341l-0.122,0l0,-0.342c0,-0.035 -0.007,-0.06 -0.022,-0.075c-0.015,-0.015 -0.039,-0.022 -0.07,-0.022c-0.023,0 -0.043,0.006 -0.061,0.017c-0.018,0.011 -0.032,0.026 -0.043,0.046l0,0.376l-0.121,0l0,-0.528l0.114,0l0.004,0.061c0.019,-0.023 0.041,-0.041 0.067,-0.053c0.026,-0.012 0.055,-0.018 0.086,-0.018Z" style="fill:#f2f3f3;fill-rule:nonzero;"/></g><g transform="matrix(14,0,0,14,101.861,0)"><path d="M0.266,-0.091c0.013,0 0.027,-0.001 0.042,-0.005l0,0.094c-0.024,0.008 -0.05,0.012 -0.079,0.012c-0.043,0 -0.077,-0.012 -0.102,-0.036c-0.025,-0.024 -0.037,-0.062 -0.037,-0.114l0,-0.298l-0.086,0l0,-0.09l0.086,0l0,-0.129l0.121,0l0,0.129l0.093,0l0,0.09l-0.093,0l0,0.29c0,0.022 0.005,0.037 0.014,0.045c0.009,0.008 0.023,0.012 0.041,0.012Z" style="fill:#f2f3f3;fill-rule:nonzero;"/></g></g></g><g><g><rect x="0" y="0" width="4" height="41.054" style="fill:#f2f3f3;"/><rect x="27.015" y="23.527" width="4" height="17.527" style="fill:#f2f3f3;"/><rect x="27.015" y="0" width="4" height="17.527" style="fill:#f2f3f3;"/><path d="M0,0l0,3.9l31.015,0l0,-3.9l-31.015,0Z" style="fill:#f2f3f3;"/><path d="M0,37.154l0,3.9l31.015,0l0,-3.9l-31.015,0Z" style="fill:#f2f3f3;"/><path d="M29.582,37.291l-24.876,-19.146l-3.094,2.382l24.876,19.146l3.094,-2.382Z" style="fill:#f2f3f3;"/><path d="M29.582,3.762l-24.876,19.146l-3.094,-2.381l24.876,-19.146l3.094,2.381Z" style="fill:#f2f3f3;"/></g></g></g></svg>