<?xml version="1.0" encoding="UTF-8" standalone="no"?><!DOCTYPE svg PUBLIC "-//W3C//DTD SVG 1.1//EN" "http://www.w3.org/Graphics/SVG/1.1/DTD/svg11.dtd"><svg width="100%" height="100%" viewBox="0 0 288 330" version="1.1" xmlns="http://www.w3.org/2000/svg" xmlns:xlink="http://www.w3.org/1999/xlink" xml:space="preserve" xmlns:serif="http://www.serif.com/" style="fill-rule:evenodd;clip-rule:evenodd;stroke-linejoin:round;stroke-miterlimit:2;"><path d="M206,330l-206,0l0,-30l18.886,0c-11.733,-13.928 -18.886,-31.679 -18.886,-51l0,-18c0,-29.078 16.202,-54.6 39.833,-68.887c0.055,-0.034 0.111,-0.068 0.167,-0.101c3.205,-1.928 6.545,-3.649 10,-5.146l0,-66.866l60,0l0,30l-32,0l0,169.294c-11.059,-1.962 -21.044,-7.889 -28,-16.243l0,-80.033c-3.779,3.099 -7.151,6.665 -10,10.605l-0.012,0.017c-6.254,8.654 -9.988,19.108 -9.988,30.36l0,12c0,29.803 26.197,54 56,54l117,0c23.493,0 43.503,-15.035 50.922,-36l33.616,0c-7.401,37.548 -41.956,65.999 -81.538,66Zm-176,-270l-30,0l0,-60l190,0c44.706,0 83,36.295 83,81l0,18c0,24.082 -11.112,45.723 -28.353,60.565c22.328,11.701 38.954,33.109 43.258,58.435l-33.319,0c-6.825,-22.001 -27.351,-37.999 -51.586,-38l-115,0l0,-30l99,0c29.804,-0.001 56,-24.197 56,-54l0,-12c0,-29.802 -26.194,-53.998 -56,-54l-157,0l0,30Z" style="fill:#f2f3f3;"/></svg>