<?xml version="1.0" encoding="UTF-8" standalone="no"?><!DOCTYPE svg PUBLIC "-//W3C//DTD SVG 1.1//EN" "http://www.w3.org/Graphics/SVG/1.1/DTD/svg11.dtd"><svg width="100%" height="100%" viewBox="0 0 189 42" version="1.1" xmlns="http://www.w3.org/2000/svg" xmlns:xlink="http://www.w3.org/1999/xlink" xml:space="preserve" xmlns:serif="http://www.serif.com/" style="fill-rule:evenodd;clip-rule:evenodd;stroke-linejoin:round;stroke-miterlimit:2;"><g id="Horizontal--new-" serif:id="Horizontal (new)"><g><g><path d="M46.918,17.796c0.751,0.186 1.314,0.556 1.689,1.112c0.375,0.538 0.563,1.168 0.563,1.891c0,1.243 -0.413,2.207 -1.22,2.874c-0.807,0.649 -1.951,0.982 -3.434,0.982l-4.916,0l0,-13.181l4.579,0c1.52,0 2.664,0.297 3.471,0.89c0.807,0.575 1.201,1.483 1.201,2.67c0,0.63 -0.15,1.168 -0.488,1.65c-0.338,0.482 -0.807,0.853 -1.445,1.112Zm-4.935,-4.431l0,3.653l2.214,0c0.732,0 1.295,-0.167 1.689,-0.482c0.413,-0.316 0.601,-0.761 0.601,-1.354c0,-0.63 -0.169,-1.094 -0.544,-1.39c-0.376,-0.278 -0.957,-0.427 -1.764,-0.427l-2.196,0Zm2.533,9.4c0.751,0 1.314,-0.167 1.708,-0.538c0.394,-0.352 0.582,-0.834 0.582,-1.428c0,-1.371 -0.732,-2.057 -2.177,-2.057l-2.646,0l0,4.023l2.533,0Z" style="fill:#f2f3f3;fill-rule:nonzero;"/></g><g><path d="M61.485,24.544l0,0.111l-2.552,0l-2.645,-5.042l-2.534,0l0,5.042l-2.383,0l0,-13.181l4.729,0c1.539,0 2.739,0.334 3.565,1.02c0.844,0.686 1.276,1.669 1.276,2.948c0,0.871 -0.225,1.613 -0.638,2.224c-0.432,0.594 -1.013,1.057 -1.801,1.391l2.983,5.487Zm-7.731,-6.822l2.365,0c0.788,0 1.388,-0.204 1.82,-0.593c0.413,-0.39 0.619,-0.909 0.619,-1.557c0,-0.705 -0.206,-1.243 -0.6,-1.632c-0.413,-0.371 -1.014,-0.575 -1.858,-0.575l-2.346,0l0,4.357Z" style="fill:#f2f3f3;fill-rule:nonzero;"/></g><g><path d="M70.613,21.634l-5.122,0l-1.051,3.021l-2.496,0l5.029,-13.181l2.139,0l5.048,13.181l-2.477,0l-1.07,-3.021Zm-0.657,-1.891l-1.913,-5.414l-1.896,5.414l3.809,0Z" style="fill:#f2f3f3;fill-rule:nonzero;"/></g><g><path d="M83.701,24.655l-5.873,-9.269l0,9.269l-2.383,0l0,-13.181l2.383,0l5.892,9.288l0,-9.288l2.345,0l0,13.181l-2.364,0Z" style="fill:#f2f3f3;fill-rule:nonzero;"/></g><g><path d="M92.444,11.474c1.182,0 2.233,0.26 3.153,0.779c0.9,0.519 1.613,1.261 2.12,2.206c0.507,0.946 0.751,2.039 0.751,3.282l0,0.648c0,1.261 -0.244,2.355 -0.751,3.3c-0.507,0.946 -1.22,1.669 -2.139,2.188c-0.919,0.519 -2.008,0.778 -3.227,0.778l-3.866,0l0,-13.181l3.959,0Zm3.641,6.248c0,-1.409 -0.319,-2.484 -0.939,-3.226c-0.619,-0.76 -1.52,-1.131 -2.702,-1.131l-1.576,0l0,9.4l1.483,0c1.219,0 2.157,-0.371 2.795,-1.131c0.62,-0.779 0.939,-1.854 0.939,-3.245l0,-0.667Z" style="fill:#f2f3f3;fill-rule:nonzero;"/></g><g><path d="M111.243,18.408c0,1.316 -0.225,2.447 -0.694,3.411c-0.451,0.983 -1.108,1.724 -1.952,2.243c-0.826,0.519 -1.801,0.779 -2.89,0.779c-1.088,0 -2.064,-0.26 -2.908,-0.779c-0.844,-0.519 -1.501,-1.26 -1.97,-2.243c-0.469,-0.964 -0.695,-2.113 -0.695,-3.411l0,-0.667c0,-1.317 0.226,-2.448 0.695,-3.43c0.469,-0.964 1.126,-1.706 1.97,-2.225c0.826,-0.537 1.801,-0.797 2.89,-0.797c1.088,0 2.064,0.26 2.908,0.779c0.844,0.519 1.482,1.26 1.952,2.243c0.469,0.964 0.694,2.113 0.694,3.43l0,0.667Zm-2.383,-0.686c0,-1.446 -0.282,-2.558 -0.826,-3.337c-0.544,-0.76 -1.332,-1.149 -2.345,-1.149c-0.657,0 -1.22,0.166 -1.708,0.519c-0.469,0.333 -0.826,0.853 -1.088,1.52c-0.244,0.667 -0.375,1.483 -0.375,2.447l0,0.686c0,0.945 0.131,1.761 0.375,2.447c0.262,0.667 0.638,1.187 1.107,1.539c0.488,0.333 1.051,0.519 1.707,0.519c1.014,0 1.783,-0.389 2.327,-1.168c0.563,-0.76 0.826,-1.891 0.826,-3.337l0,-0.686Z" style="fill:#f2f3f3;fill-rule:nonzero;"/></g><g><path d="M121.383,24.655l-5.873,-9.269l0,9.269l-2.383,0l0,-13.181l2.383,0l5.892,9.288l0,-9.288l2.346,0l0,13.181l-2.365,0Z" style="fill:#f2f3f3;fill-rule:nonzero;"/></g><g><path d="M141.348,20.354c-0.094,0.872 -0.338,1.65 -0.75,2.336c-0.413,0.668 -1.014,1.187 -1.764,1.576c-0.751,0.389 -1.67,0.575 -2.74,0.575c-1.088,0 -2.045,-0.26 -2.852,-0.76c-0.807,-0.519 -1.445,-1.242 -1.876,-2.188c-0.432,-0.945 -0.657,-2.039 -0.657,-3.3l0,-1.038c0,-1.26 0.225,-2.373 0.676,-3.318c0.45,-0.927 1.088,-1.669 1.913,-2.169c0.826,-0.519 1.783,-0.779 2.89,-0.779c1.051,0 1.933,0.204 2.683,0.575c0.732,0.389 1.314,0.927 1.727,1.613c0.412,0.686 0.656,1.464 0.75,2.373l-2.364,0c-0.094,-0.89 -0.357,-1.539 -0.788,-1.984c-0.432,-0.445 -1.088,-0.667 -2.008,-0.667c-1.013,0 -1.782,0.37 -2.308,1.112c-0.525,0.741 -0.788,1.817 -0.788,3.226l0,1.056c0,1.372 0.244,2.447 0.732,3.208c0.488,0.76 1.238,1.13 2.27,1.13c0.638,0 1.164,-0.092 1.558,-0.296c0.413,-0.186 0.713,-0.482 0.919,-0.853c0.188,-0.371 0.338,-0.853 0.413,-1.428l2.364,0Z" style="fill:#f2f3f3;fill-rule:nonzero;"/></g><g><path d="M153.514,18.408c0,1.316 -0.226,2.447 -0.695,3.411c-0.45,0.983 -1.107,1.724 -1.951,2.243c-0.826,0.519 -1.801,0.779 -2.89,0.779c-1.088,0 -2.064,-0.26 -2.908,-0.779c-0.845,-0.519 -1.501,-1.26 -1.97,-2.243c-0.47,-0.964 -0.695,-2.113 -0.695,-3.411l0,-0.667c0,-1.317 0.225,-2.448 0.695,-3.43c0.469,-0.964 1.125,-1.706 1.97,-2.225c0.825,-0.537 1.801,-0.797 2.889,-0.797c1.089,0 2.064,0.26 2.909,0.779c0.844,0.519 1.482,1.26 1.951,2.243c0.469,0.964 0.695,2.113 0.695,3.43l0,0.667Zm-2.383,-0.686c0,-1.446 -0.282,-2.558 -0.826,-3.337c-0.544,-0.76 -1.332,-1.149 -2.346,-1.149c-0.656,0 -1.219,0.166 -1.707,0.519c-0.469,0.333 -0.826,0.853 -1.088,1.52c-0.244,0.667 -0.376,1.483 -0.376,2.447l0,0.686c0,0.945 0.132,1.761 0.376,2.447c0.262,0.667 0.638,1.187 1.107,1.539c0.488,0.333 1.05,0.519 1.707,0.519c1.013,0 1.783,-0.389 2.327,-1.168c0.563,-0.76 0.826,-1.891 0.826,-3.337l0,-0.686Z" style="fill:#f2f3f3;fill-rule:nonzero;"/></g><g><path d="M165.512,24.544l0,0.111l-2.552,0l-2.646,-5.042l-2.533,0l0,5.042l-2.383,0l0,-13.181l4.728,0c1.539,0 2.74,0.334 3.566,1.02c0.844,0.686 1.276,1.669 1.276,2.948c0,0.871 -0.226,1.613 -0.638,2.224c-0.432,0.594 -1.014,1.057 -1.802,1.391l2.984,5.487Zm-7.731,-6.822l2.364,0c0.788,0 1.389,-0.204 1.82,-0.593c0.413,-0.39 0.619,-0.909 0.619,-1.557c0,-0.705 -0.206,-1.243 -0.6,-1.632c-0.413,-0.371 -1.013,-0.575 -1.858,-0.575l-2.345,0l0,4.357Z" style="fill:#f2f3f3;fill-rule:nonzero;"/></g><g><path d="M176.008,22.765l0,1.89l-8.762,0l0,-13.181l8.706,0l0,1.891l-6.323,0l0,3.578l5.441,0l0,1.854l-5.441,0l0,3.968l6.379,0Z" style="fill:#f2f3f3;fill-rule:nonzero;"/></g><g><path d="M185.455,11.474l2.627,0l-4.447,8.343l0,4.838l-2.401,0l0,-4.838l-4.466,-8.343l2.645,0l3.021,6.211l3.021,-6.211Z" style="fill:#f2f3f3;fill-rule:nonzero;"/></g></g><g><g><g><path d="M50.207,29.354l-2.302,9.516l-1.165,0l-1.954,-6.946l-0.134,-0.709l-0.16,0.709l-2.021,6.946l-1.151,0l-2.302,-9.516l1.272,0l1.485,6.518l0.187,1.245l0.268,-1.111l1.874,-6.652l1.07,0l1.821,6.652l0.267,1.138l0.201,-1.272l1.472,-6.518l1.272,0Z" style="fill:#f2f3f3;fill-rule:nonzero;"/></g></g><g><g><path d="M56.566,35.671l-4.777,0c0.013,0.442 0.107,0.83 0.267,1.192c0.174,0.361 0.415,0.642 0.723,0.843c0.308,0.214 0.682,0.321 1.097,0.321c0.415,0 0.763,-0.094 1.058,-0.254c0.307,-0.161 0.575,-0.402 0.803,-0.71l0.736,0.576c-0.255,0.401 -0.603,0.722 -1.044,0.977c-0.428,0.254 -0.977,0.388 -1.62,0.388c-0.642,0 -1.217,-0.147 -1.699,-0.442c-0.495,-0.294 -0.884,-0.696 -1.151,-1.218c-0.268,-0.522 -0.402,-1.097 -0.402,-1.766l0,-0.281c0,-0.736 0.147,-1.379 0.442,-1.928c0.281,-0.548 0.669,-0.977 1.137,-1.258c0.469,-0.294 0.977,-0.441 1.513,-0.441c0.669,0 1.204,0.147 1.646,0.441c0.428,0.295 0.749,0.696 0.964,1.218c0.2,0.522 0.307,1.111 0.307,1.794l0,0.548Zm-1.218,-1.07c-0.04,-0.562 -0.187,-1.017 -0.455,-1.392c-0.254,-0.375 -0.669,-0.562 -1.244,-0.562c-0.482,0 -0.883,0.174 -1.218,0.535c-0.321,0.348 -0.522,0.857 -0.602,1.512l3.519,0l0,-0.093Z" style="fill:#f2f3f3;fill-rule:nonzero;"/></g><g><path d="M61.207,31.67c0.576,0 1.071,0.147 1.486,0.441c0.415,0.308 0.736,0.723 0.95,1.272c0.214,0.535 0.321,1.164 0.321,1.887l0,0.147c0,0.683 -0.107,1.312 -0.321,1.847c-0.214,0.549 -0.535,0.964 -0.95,1.271c-0.415,0.308 -0.897,0.469 -1.472,0.469c-0.897,0 -1.58,-0.321 -2.075,-0.937l-0.053,0.803l-1.125,0l0,-10.037l1.232,0l0,3.72c0.482,-0.589 1.151,-0.883 2.007,-0.883Zm1.539,3.6c0,-0.763 -0.147,-1.392 -0.441,-1.874c-0.295,-0.482 -0.763,-0.709 -1.406,-0.709c-0.414,0 -0.762,0.094 -1.043,0.294c-0.282,0.201 -0.496,0.469 -0.656,0.803l0,3.092c0.16,0.334 0.388,0.602 0.669,0.803c0.294,0.201 0.629,0.308 1.044,0.308c0.615,0 1.07,-0.241 1.378,-0.723c0.295,-0.482 0.455,-1.097 0.455,-1.847l0,-0.147Z" style="fill:#f2f3f3;fill-rule:nonzero;"/></g></g><g><g><path d="M71.681,29.354c0.829,0 1.565,0.188 2.208,0.549c0.629,0.362 1.124,0.883 1.472,1.553c0.348,0.682 0.522,1.472 0.522,2.368l0,0.576c0,0.91 -0.174,1.7 -0.522,2.382c-0.348,0.669 -0.857,1.178 -1.499,1.539c-0.656,0.362 -1.419,0.549 -2.289,0.549l-2.569,0l0,-9.516l2.677,0Zm2.944,4.457c0,-0.723 -0.107,-1.338 -0.335,-1.847c-0.227,-0.522 -0.562,-0.91 -1.003,-1.178c-0.442,-0.267 -0.977,-0.401 -1.606,-0.401l-1.419,0l0,7.468l1.311,0c0.656,0 1.218,-0.147 1.673,-0.428c0.469,-0.281 0.803,-0.67 1.044,-1.192c0.228,-0.521 0.335,-1.124 0.335,-1.833l0,-0.589Z" style="fill:#f2f3f3;fill-rule:nonzero;"/></g></g><g><g><path d="M83.02,35.671l-4.778,0c0.013,0.442 0.107,0.83 0.267,1.192c0.174,0.361 0.415,0.642 0.723,0.843c0.308,0.214 0.683,0.321 1.098,0.321c0.414,0 0.762,-0.094 1.057,-0.254c0.308,-0.161 0.575,-0.402 0.803,-0.71l0.736,0.576c-0.254,0.401 -0.602,0.722 -1.044,0.977c-0.428,0.254 -0.977,0.388 -1.619,0.388c-0.643,0 -1.218,-0.147 -1.7,-0.442c-0.495,-0.294 -0.883,-0.696 -1.151,-1.218c-0.268,-0.522 -0.401,-1.097 -0.401,-1.766l0,-0.281c0,-0.736 0.147,-1.379 0.441,-1.928c0.281,-0.548 0.669,-0.977 1.138,-1.258c0.468,-0.294 0.977,-0.441 1.512,-0.441c0.669,0 1.205,0.147 1.646,0.441c0.428,0.295 0.75,0.696 0.964,1.218c0.201,0.522 0.308,1.111 0.308,1.794l0,0.548Zm-1.218,-1.07c-0.04,-0.562 -0.188,-1.017 -0.455,-1.392c-0.255,-0.375 -0.669,-0.562 -1.245,-0.562c-0.482,0 -0.883,0.174 -1.218,0.535c-0.321,0.348 -0.522,0.857 -0.602,1.512l3.52,0l0,-0.093Z" style="fill:#f2f3f3;fill-rule:nonzero;"/></g></g><g><g><path d="M89.748,31.804l-2.529,7.066l-0.924,0l-2.569,-7.066l1.244,0l1.794,5.406l1.74,-5.406l1.244,0Z" style="fill:#f2f3f3;fill-rule:nonzero;"/></g></g><g><g><path d="M96.478,35.671l-4.778,0c0.014,0.442 0.107,0.83 0.268,1.192c0.174,0.361 0.415,0.642 0.723,0.843c0.308,0.214 0.682,0.321 1.097,0.321c0.415,0 0.763,-0.094 1.057,-0.254c0.308,-0.161 0.576,-0.402 0.803,-0.71l0.736,0.576c-0.254,0.401 -0.602,0.722 -1.043,0.977c-0.429,0.254 -0.977,0.388 -1.62,0.388c-0.642,0 -1.218,-0.147 -1.699,-0.442c-0.496,-0.294 -0.884,-0.696 -1.151,-1.218c-0.268,-0.522 -0.402,-1.097 -0.402,-1.766l0,-0.281c0,-0.736 0.147,-1.379 0.442,-1.928c0.281,-0.548 0.669,-0.977 1.137,-1.258c0.469,-0.294 0.977,-0.441 1.513,-0.441c0.669,0 1.204,0.147 1.646,0.441c0.428,0.295 0.749,0.696 0.963,1.218c0.201,0.522 0.308,1.111 0.308,1.794l0,0.548Zm-1.218,-1.07c-0.04,-0.562 -0.187,-1.017 -0.455,-1.392c-0.254,-0.375 -0.669,-0.562 -1.244,-0.562c-0.482,0 -0.884,0.174 -1.218,0.535c-0.321,0.348 -0.522,0.857 -0.603,1.512l3.52,0l0,-0.093Z" style="fill:#f2f3f3;fill-rule:nonzero;"/></g></g><g><g><rect x="97.987" y="28.833" width="1.218" height="10.037" style="fill:#f2f3f3;"/></g></g><g><g><path d="M100.693,35.257c0,-0.683 0.134,-1.299 0.388,-1.834c0.268,-0.549 0.642,-0.977 1.124,-1.285c0.482,-0.308 1.044,-0.468 1.7,-0.468c0.642,0 1.218,0.16 1.713,0.468c0.482,0.308 0.856,0.736 1.124,1.285c0.254,0.535 0.388,1.151 0.388,1.834l0,0.16c0,0.683 -0.134,1.298 -0.388,1.834c-0.268,0.548 -0.642,0.977 -1.124,1.284c-0.482,0.308 -1.057,0.469 -1.7,0.469c-0.656,0 -1.218,-0.161 -1.713,-0.469c-0.482,-0.307 -0.856,-0.736 -1.124,-1.284c-0.254,-0.536 -0.388,-1.151 -0.388,-1.834l0,-0.16Zm1.218,0.16c0,0.482 0.08,0.91 0.227,1.312c0.148,0.388 0.375,0.709 0.683,0.937c0.294,0.24 0.656,0.361 1.097,0.361c0.429,0 0.79,-0.121 1.084,-0.361c0.308,-0.228 0.522,-0.549 0.683,-0.937c0.147,-0.402 0.227,-0.83 0.227,-1.312l0,-0.16c0,-0.469 -0.08,-0.911 -0.241,-1.312c-0.147,-0.388 -0.374,-0.709 -0.669,-0.937c-0.308,-0.241 -0.669,-0.361 -1.097,-0.361c-0.428,0 -0.79,0.12 -1.098,0.361c-0.294,0.228 -0.521,0.549 -0.669,0.937c-0.147,0.401 -0.227,0.843 -0.227,1.312l0,0.16Z" style="fill:#f2f3f3;fill-rule:nonzero;"/></g></g><g><g><path d="M111.598,31.67c0.589,0 1.084,0.147 1.499,0.441c0.415,0.308 0.722,0.723 0.936,1.272c0.215,0.535 0.322,1.164 0.322,1.887l0,0.147c0,0.683 -0.107,1.312 -0.322,1.847c-0.214,0.549 -0.535,0.964 -0.936,1.271c-0.415,0.308 -0.91,0.469 -1.473,0.469c-0.856,0 -1.539,-0.268 -2.02,-0.817l0,3.4l-1.232,0l0,-9.783l1.111,0l0.067,0.762c0.495,-0.602 1.178,-0.896 2.048,-0.896Zm1.539,3.6c0,-0.482 -0.067,-0.924 -0.214,-1.312c-0.134,-0.388 -0.348,-0.696 -0.629,-0.937c-0.281,-0.227 -0.643,-0.334 -1.058,-0.334c-0.388,0 -0.709,0.08 -0.99,0.254c-0.268,0.174 -0.482,0.415 -0.642,0.71l0,3.412c0.361,0.643 0.91,0.964 1.646,0.964c0.415,0 0.763,-0.121 1.044,-0.361c0.281,-0.228 0.495,-0.536 0.629,-0.937c0.147,-0.388 0.214,-0.83 0.214,-1.312l0,-0.147Z" style="fill:#f2f3f3;fill-rule:nonzero;"/></g></g><g><g><path d="M123.436,31.67c0.776,0 1.365,0.201 1.766,0.615c0.402,0.415 0.602,1.058 0.602,1.941l0,4.644l-1.231,0l0,-4.657c0,-0.562 -0.12,-0.964 -0.375,-1.192c-0.254,-0.227 -0.629,-0.334 -1.124,-0.334c-0.308,0 -0.589,0.067 -0.83,0.187c-0.227,0.134 -0.414,0.321 -0.548,0.549c-0.134,0.228 -0.214,0.482 -0.241,0.763l0,4.684l-1.218,0l0,-4.657c0,-1.018 -0.509,-1.526 -1.512,-1.526c-0.402,0 -0.75,0.08 -1.004,0.254c-0.268,0.188 -0.469,0.428 -0.616,0.736l0,5.193l-1.218,0l0,-7.066l1.151,0l0.04,0.762c0.241,-0.294 0.549,-0.508 0.897,-0.669c0.348,-0.147 0.736,-0.227 1.191,-0.227c0.469,0 0.87,0.093 1.232,0.281c0.347,0.187 0.615,0.468 0.789,0.843c0.241,-0.348 0.549,-0.629 0.937,-0.83c0.375,-0.201 0.816,-0.294 1.312,-0.294Z" style="fill:#f2f3f3;fill-rule:nonzero;"/></g></g><g><g><path d="M133.051,35.671l-4.778,0c0.014,0.442 0.107,0.83 0.268,1.192c0.174,0.361 0.415,0.642 0.722,0.843c0.308,0.214 0.683,0.321 1.098,0.321c0.415,0 0.763,-0.094 1.057,-0.254c0.308,-0.161 0.576,-0.402 0.803,-0.71l0.736,0.576c-0.254,0.401 -0.602,0.722 -1.044,0.977c-0.428,0.254 -0.977,0.388 -1.619,0.388c-0.642,0 -1.218,-0.147 -1.7,-0.442c-0.495,-0.294 -0.883,-0.696 -1.151,-1.218c-0.267,-0.522 -0.401,-1.097 -0.401,-1.766l0,-0.281c0,-0.736 0.147,-1.379 0.442,-1.928c0.281,-0.548 0.669,-0.977 1.137,-1.258c0.469,-0.294 0.977,-0.441 1.512,-0.441c0.67,0 1.205,0.147 1.647,0.441c0.428,0.295 0.749,0.696 0.963,1.218c0.201,0.522 0.308,1.111 0.308,1.794l0,0.548Zm-1.218,-1.07c-0.04,-0.562 -0.187,-1.017 -0.455,-1.392c-0.254,-0.375 -0.669,-0.562 -1.245,-0.562c-0.481,0 -0.883,0.174 -1.217,0.535c-0.322,0.348 -0.522,0.857 -0.603,1.512l3.52,0l0,-0.093Z" style="fill:#f2f3f3;fill-rule:nonzero;"/></g><g><path d="M137.759,31.67c1.512,0 2.261,0.856 2.261,2.569l0,4.631l-1.217,0l0,-4.644c0,-0.549 -0.121,-0.937 -0.348,-1.178c-0.228,-0.241 -0.589,-0.361 -1.058,-0.361c-0.374,0 -0.709,0.094 -1.003,0.308c-0.308,0.2 -0.536,0.468 -0.71,0.816l0,5.059l-1.231,0l0,-7.066l1.164,0l0.04,0.87c0.255,-0.322 0.563,-0.576 0.924,-0.75c0.348,-0.174 0.749,-0.254 1.178,-0.254Z" style="fill:#f2f3f3;fill-rule:nonzero;"/></g><g><path d="M144.841,38.87c-0.267,0.094 -0.588,0.134 -0.923,0.134c-0.495,0 -0.897,-0.147 -1.191,-0.442c-0.295,-0.308 -0.442,-0.789 -0.442,-1.445l0,-4.39l-1.298,0l0,-0.923l1.298,0l0,-1.727l1.218,0l0,1.727l1.325,0l0,0.923l-1.325,0l0,4.39c0,0.334 0.067,0.562 0.214,0.682c0.134,0.107 0.321,0.174 0.562,0.174c0.094,0 0.188,-0.013 0.295,-0.026c0.12,-0.014 0.201,-0.027 0.267,-0.054l0,0.977Z" style="fill:#f2f3f3;fill-rule:nonzero;"/></g></g></g><g><g><rect x="0" y="0" width="4" height="41.054" style="fill:#f2f3f3;"/><rect x="27.015" y="23.527" width="4" height="17.527" style="fill:#f2f3f3;"/><rect x="27.015" y="0" width="4" height="17.527" style="fill:#f2f3f3;"/><rect x="0" y="0" width="31.015" height="3.9" style="fill:#f2f3f3;"/><rect x="0" y="37.154" width="31.015" height="3.9" style="fill:#f2f3f3;"/><path d="M29.582,37.291l-24.876,-19.146l-3.094,2.382l24.876,19.146l3.094,-2.382Z" style="fill:#f2f3f3;"/><path d="M29.582,3.762l-24.876,19.146l-3.094,-2.381l24.876,-19.146l3.094,2.381Z" style="fill:#f2f3f3;"/></g></g></g></svg>