<?xml version="1.0" encoding="UTF-8" standalone="no"?><!DOCTYPE svg PUBLIC "-//W3C//DTD SVG 1.1//EN" "http://www.w3.org/Graphics/SVG/1.1/DTD/svg11.dtd"><svg width="100%" height="100%" viewBox="0 0 192 42" version="1.1" xmlns="http://www.w3.org/2000/svg" xmlns:xlink="http://www.w3.org/1999/xlink" xml:space="preserve" xmlns:serif="http://www.serif.com/" style="fill-rule:evenodd;clip-rule:evenodd;stroke-linejoin:round;stroke-miterlimit:2;"><g id="Horizontal"><g transform="matrix(1.3407,0,0,1.3246,-6.81635,-161.121)"><g transform="matrix(13.9957,0,0,13.9957,33.632,140.365)"><path d="M0.479,-0.365c0.039,0.01 0.068,0.029 0.087,0.058c0.02,0.028 0.029,0.061 0.029,0.097c0,0.069 -0.022,0.121 -0.066,0.157c-0.044,0.035 -0.109,0.053 -0.193,0.053l-0.275,0l0,-0.711l0.251,0c0.086,0 0.152,0.016 0.198,0.049c0.046,0.032 0.07,0.081 0.07,0.146c0,0.034 -0.009,0.064 -0.026,0.091c-0.016,0.026 -0.042,0.046 -0.075,0.06Zm-0.265,-0.222l0,0.173l0.098,0c0.039,0 0.067,-0.007 0.086,-0.021c0.019,-0.014 0.028,-0.036 0.028,-0.064c0,-0.031 -0.009,-0.053 -0.027,-0.067c-0.018,-0.014 -0.047,-0.021 -0.087,-0.021l-0.098,0Zm0.122,0.463c0.035,0 0.062,-0.008 0.08,-0.024c0.017,-0.016 0.026,-0.037 0.026,-0.063c0,-0.064 -0.033,-0.096 -0.1,-0.096l-0.128,0l0,0.183l0.122,0Z" style="fill:#fff;fill-rule:nonzero;"/></g><g transform="matrix(13.9957,0,0,13.9957,42.6611,140.365)"><path d="M0.62,-0.007l0,0.007l-0.164,0l-0.131,-0.257l-0.111,0l0,0.257l-0.153,0l0,-0.711l0.269,0c0.055,0 0.102,0.008 0.141,0.025c0.04,0.016 0.07,0.04 0.092,0.072c0.021,0.033 0.031,0.072 0.031,0.118c0,0.05 -0.011,0.092 -0.032,0.124c-0.022,0.032 -0.054,0.057 -0.094,0.076l0.152,0.289Zm-0.406,-0.374l0.116,0c0.036,0 0.064,-0.009 0.083,-0.027c0.018,-0.018 0.028,-0.043 0.028,-0.075c0,-0.033 -0.009,-0.058 -0.028,-0.077c-0.019,-0.018 -0.047,-0.027 -0.083,-0.027l-0.116,0l0,0.206Z" style="fill:#fff;fill-rule:nonzero;"/></g><g transform="matrix(13.9957,0,0,13.9957,51.6476,140.365)"><path d="M0.464,-0.141l-0.252,0l-0.046,0.141l-0.164,0l0.264,-0.711l0.143,0l0.265,0.711l-0.164,0l-0.046,-0.141Zm-0.041,-0.124l-0.086,-0.259l-0.085,0.259l0.171,0Z" style="fill:#fff;fill-rule:nonzero;"/></g><g transform="matrix(13.9957,0,0,13.9957,60.9588,140.365)"><path d="M0.491,0l-0.277,-0.458l0,0.458l-0.153,0l0,-0.711l0.153,0l0.277,0.459l0,-0.459l0.153,0l0,0.711l-0.153,0Z" style="fill:#fff;fill-rule:nonzero;"/></g><g transform="matrix(13.9957,0,0,13.9957,70.7637,140.365)"><path d="M0.283,-0.711c0.063,0 0.12,0.014 0.169,0.043c0.049,0.028 0.088,0.068 0.115,0.12c0.028,0.051 0.042,0.11 0.042,0.177l0,0.031c0,0.067 -0.014,0.126 -0.042,0.177c-0.027,0.052 -0.066,0.092 -0.115,0.12c-0.05,0.029 -0.106,0.043 -0.17,0.043l-0.221,0l0,-0.711l0.222,0Zm0.17,0.339c0,-0.07 -0.014,-0.124 -0.043,-0.16c-0.029,-0.037 -0.072,-0.055 -0.127,-0.055l-0.069,0l0,0.463l0.068,0c0.055,0 0.098,-0.018 0.127,-0.055c0.029,-0.037 0.044,-0.091 0.044,-0.161l0,-0.032Z" style="fill:#fff;fill-rule:nonzero;"/></g><g transform="matrix(13.9957,0,0,13.9957,79.8527,140.365)"><path d="M0.65,-0.34c0,0.071 -0.013,0.133 -0.038,0.186c-0.026,0.052 -0.062,0.093 -0.108,0.121c-0.046,0.029 -0.098,0.043 -0.158,0.043c-0.06,0 -0.113,-0.014 -0.159,-0.043c-0.047,-0.028 -0.083,-0.069 -0.108,-0.121c-0.026,-0.053 -0.039,-0.115 -0.039,-0.186l0,-0.031c0,-0.071 0.013,-0.132 0.039,-0.185c0.025,-0.053 0.061,-0.094 0.107,-0.122c0.046,-0.029 0.099,-0.043 0.159,-0.043c0.06,0 0.113,0.014 0.159,0.043c0.046,0.028 0.082,0.069 0.107,0.122c0.026,0.053 0.039,0.114 0.039,0.185l0,0.031Zm-0.155,-0.032c0,-0.072 -0.013,-0.127 -0.039,-0.165c-0.026,-0.039 -0.063,-0.058 -0.111,-0.058c-0.048,0 -0.085,0.019 -0.111,0.057c-0.026,0.038 -0.039,0.094 -0.039,0.166l0,0.032c0,0.072 0.013,0.127 0.039,0.166c0.026,0.039 0.064,0.058 0.112,0.058c0.048,0 0.084,-0.019 0.11,-0.058c0.026,-0.039 0.039,-0.094 0.039,-0.166l0,-0.032Z" style="fill:#fff;fill-rule:nonzero;"/></g><g transform="matrix(13.9957,0,0,13.9957,89.5157,140.365)"><path d="M0.491,0l-0.277,-0.458l0,0.458l-0.153,0l0,-0.711l0.153,0l0.277,0.459l0,-0.459l0.153,0l0,0.711l-0.153,0Z" style="fill:#fff;fill-rule:nonzero;"/></g><g transform="matrix(13.9957,0,0,13.9957,102.876,140.365)"><path d="M0.624,-0.238c-0.003,0.049 -0.017,0.092 -0.04,0.129c-0.024,0.038 -0.057,0.067 -0.099,0.088c-0.042,0.02 -0.092,0.031 -0.149,0.031c-0.061,0 -0.114,-0.014 -0.158,-0.042c-0.045,-0.028 -0.079,-0.068 -0.103,-0.119c-0.023,-0.052 -0.035,-0.113 -0.035,-0.182l0,-0.044c0,-0.07 0.012,-0.13 0.037,-0.182c0.024,-0.052 0.059,-0.092 0.103,-0.12c0.045,-0.028 0.097,-0.042 0.156,-0.042c0.059,0 0.109,0.011 0.15,0.032c0.042,0.022 0.074,0.051 0.097,0.089c0.023,0.038 0.037,0.082 0.042,0.132l-0.153,0c-0.003,-0.043 -0.015,-0.075 -0.036,-0.096c-0.02,-0.021 -0.054,-0.032 -0.1,-0.032c-0.047,0 -0.083,0.018 -0.106,0.053c-0.023,0.035 -0.035,0.09 -0.035,0.165l0,0.045c0,0.05 0.005,0.091 0.014,0.123c0.01,0.032 0.025,0.055 0.045,0.071c0.021,0.015 0.048,0.023 0.082,0.023c0.044,0 0.077,-0.01 0.098,-0.03c0.022,-0.02 0.034,-0.051 0.037,-0.092l0.153,0Z" style="fill:#fff;fill-rule:nonzero;"/></g><g transform="matrix(13.9957,0,0,13.9957,112.047,140.365)"><path d="M0.65,-0.34c0,0.071 -0.013,0.133 -0.038,0.186c-0.026,0.052 -0.062,0.093 -0.108,0.121c-0.046,0.029 -0.098,0.043 -0.158,0.043c-0.06,0 -0.113,-0.014 -0.159,-0.043c-0.047,-0.028 -0.083,-0.069 -0.108,-0.121c-0.026,-0.053 -0.039,-0.115 -0.039,-0.186l0,-0.031c0,-0.071 0.013,-0.132 0.039,-0.185c0.025,-0.053 0.061,-0.094 0.107,-0.122c0.046,-0.029 0.099,-0.043 0.159,-0.043c0.06,0 0.113,0.014 0.159,0.043c0.046,0.028 0.082,0.069 0.107,0.122c0.026,0.053 0.039,0.114 0.039,0.185l0,0.031Zm-0.155,-0.032c0,-0.072 -0.013,-0.127 -0.039,-0.165c-0.026,-0.039 -0.063,-0.058 -0.111,-0.058c-0.048,0 -0.085,0.019 -0.111,0.057c-0.026,0.038 -0.039,0.094 -0.039,0.166l0,0.032c0,0.072 0.013,0.127 0.039,0.166c0.026,0.039 0.064,0.058 0.112,0.058c0.048,0 0.084,-0.019 0.11,-0.058c0.026,-0.039 0.039,-0.094 0.039,-0.166l0,-0.032Z" style="fill:#fff;fill-rule:nonzero;"/></g><g transform="matrix(13.9957,0,0,13.9957,121.71,140.365)"><path d="M0.62,-0.007l0,0.007l-0.164,0l-0.131,-0.257l-0.111,0l0,0.257l-0.153,0l0,-0.711l0.269,0c0.055,0 0.102,0.008 0.141,0.025c0.04,0.016 0.07,0.04 0.092,0.072c0.021,0.033 0.031,0.072 0.031,0.118c0,0.05 -0.011,0.092 -0.032,0.124c-0.022,0.032 -0.054,0.057 -0.094,0.076l0.152,0.289Zm-0.406,-0.374l0.116,0c0.036,0 0.064,-0.009 0.083,-0.027c0.018,-0.018 0.028,-0.043 0.028,-0.075c0,-0.033 -0.009,-0.058 -0.028,-0.077c-0.019,-0.018 -0.047,-0.027 -0.083,-0.027l-0.116,0l0,0.206Z" style="fill:#fff;fill-rule:nonzero;"/></g><g transform="matrix(13.9957,0,0,13.9957,130.906,140.365)"><path d="M0.541,-0.124l0,0.124l-0.48,0l0,-0.711l0.48,0l0,0.124l-0.327,0l0,0.162l0.278,0l0,0.119l-0.278,0l0,0.182l0.327,0Z" style="fill:#fff;fill-rule:nonzero;"/></g><g transform="matrix(13.9957,0,0,13.9957,139.332,140.365)"><path d="M0.454,-0.711l0.167,0l-0.233,0.454l0,0.257l-0.155,0l0,-0.257l-0.233,-0.454l0.167,0l0.144,0.316l0.143,-0.316Z" style="fill:#fff;fill-rule:nonzero;"/></g></g><g transform="matrix(1.01911,0,0,0.955951,38.6227,39.1879)"><g transform="matrix(0.938025,0,0,1,0,0)"><g transform="matrix(14,0,0,14,0,0)"><path d="M0.862,-0.711l-0.163,0.711l-0.123,0l-0.132,-0.514l-0.135,0.514l-0.123,0l-0.163,-0.711l0.125,0l0.109,0.53l0.134,-0.53l0.106,0l0.131,0.532l0.108,-0.532l0.126,0Z" style="fill:#fff;fill-rule:nonzero;"/></g></g><g transform="matrix(0.938025,0,0,1,0.683164,0)"><g transform="matrix(14,0,0,14,11.0232,0)"><path d="M0.507,-0.226l-0.344,0c0.002,0.027 0.009,0.051 0.021,0.072c0.011,0.021 0.027,0.037 0.047,0.049c0.02,0.011 0.044,0.017 0.07,0.017c0.055,0 0.099,-0.021 0.132,-0.064l0.065,0.063c-0.019,0.028 -0.046,0.052 -0.08,0.07c-0.034,0.019 -0.076,0.029 -0.124,0.029c-0.051,0 -0.096,-0.011 -0.135,-0.034c-0.038,-0.022 -0.068,-0.052 -0.088,-0.091c-0.021,-0.039 -0.031,-0.082 -0.031,-0.131l0,-0.02c0,-0.054 0.01,-0.102 0.031,-0.143c0.021,-0.041 0.05,-0.073 0.086,-0.095c0.037,-0.023 0.078,-0.034 0.123,-0.034c0.05,0 0.092,0.011 0.126,0.033c0.034,0.021 0.059,0.052 0.076,0.091c0.016,0.039 0.025,0.085 0.025,0.137l0,0.051Zm-0.12,-0.097c-0.002,-0.034 -0.011,-0.062 -0.028,-0.084c-0.017,-0.022 -0.043,-0.033 -0.079,-0.033c-0.032,0 -0.058,0.011 -0.077,0.033c-0.02,0.022 -0.032,0.053 -0.038,0.093l0.222,0l0,-0.009Z" style="fill:#fff;fill-rule:nonzero;"/></g><g transform="matrix(14,0,0,14,18.5428,0)"><path d="M0.319,-0.538c0.044,0 0.082,0.011 0.113,0.034c0.031,0.022 0.054,0.054 0.07,0.094c0.016,0.041 0.023,0.088 0.023,0.141l0,0.01c0,0.053 -0.008,0.099 -0.023,0.14c-0.016,0.04 -0.039,0.072 -0.07,0.095c-0.031,0.022 -0.069,0.034 -0.112,0.034c-0.061,0 -0.109,-0.023 -0.144,-0.067l-0.006,0.057l-0.11,0l0,-0.75l0.122,0l0,0.272c0.033,-0.04 0.079,-0.06 0.137,-0.06Zm0.085,0.269c0,-0.051 -0.009,-0.092 -0.027,-0.123c-0.018,-0.031 -0.047,-0.047 -0.089,-0.047c-0.05,0 -0.086,0.022 -0.106,0.066l0,0.216c0.02,0.045 0.056,0.068 0.107,0.068c0.041,0 0.07,-0.016 0.088,-0.046c0.018,-0.03 0.027,-0.072 0.027,-0.124l0,-0.01Z" style="fill:#fff;fill-rule:nonzero;"/></g></g><g transform="matrix(0.938025,0,0,1,1.78118,0)"><g transform="matrix(14,0,0,14,28.7404,0)"><path d="M0.282,-0.711c0.063,0 0.119,0.014 0.168,0.042c0.048,0.028 0.086,0.068 0.113,0.119c0.027,0.051 0.04,0.11 0.04,0.177l0,0.035c0,0.068 -0.013,0.127 -0.04,0.178c-0.027,0.051 -0.065,0.09 -0.114,0.118c-0.049,0.028 -0.107,0.042 -0.172,0.042l-0.206,0l0,-0.711l0.211,0Zm0.194,0.337c0,-0.076 -0.017,-0.134 -0.05,-0.174c-0.033,-0.041 -0.081,-0.061 -0.144,-0.061l-0.084,0l0,0.507l0.079,0c0.065,0 0.115,-0.02 0.149,-0.061c0.033,-0.042 0.05,-0.1 0.05,-0.175l0,-0.036Z" style="fill:#fff;fill-rule:nonzero;"/></g></g><g transform="matrix(0.938025,0,0,1,2.29623,0)"><g transform="matrix(14,0,0,14,37.0509,0)"><path d="M0.507,-0.226l-0.344,0c0.002,0.027 0.009,0.051 0.021,0.072c0.011,0.021 0.027,0.037 0.047,0.049c0.02,0.011 0.044,0.017 0.07,0.017c0.055,0 0.099,-0.021 0.132,-0.064l0.065,0.063c-0.019,0.028 -0.046,0.052 -0.08,0.07c-0.034,0.019 -0.076,0.029 -0.124,0.029c-0.051,0 -0.096,-0.011 -0.135,-0.034c-0.038,-0.022 -0.068,-0.052 -0.088,-0.091c-0.021,-0.039 -0.031,-0.082 -0.031,-0.131l0,-0.02c0,-0.054 0.01,-0.102 0.031,-0.143c0.021,-0.041 0.05,-0.073 0.086,-0.095c0.037,-0.023 0.078,-0.034 0.123,-0.034c0.05,0 0.092,0.011 0.126,0.033c0.034,0.021 0.059,0.052 0.076,0.091c0.016,0.039 0.025,0.085 0.025,0.137l0,0.051Zm-0.12,-0.097c-0.002,-0.034 -0.011,-0.062 -0.028,-0.084c-0.017,-0.022 -0.043,-0.033 -0.079,-0.033c-0.032,0 -0.058,0.011 -0.077,0.033c-0.02,0.022 -0.032,0.053 -0.038,0.093l0.222,0l0,-0.009Z" style="fill:#fff;fill-rule:nonzero;"/></g></g><g transform="matrix(0.938025,0,0,1,2.73337,0)"><g transform="matrix(14,0,0,14,44.1044,0)"><path d="M0.484,-0.528l-0.183,0.528l-0.107,0l-0.183,-0.528l0.126,0l0.112,0.374l0.109,-0.374l0.126,0Z" style="fill:#fff;fill-rule:nonzero;"/></g></g><g transform="matrix(0.938025,0,0,1,3.12939,0)"><g transform="matrix(14,0,0,14,50.4944,0)"><path d="M0.507,-0.226l-0.344,0c0.002,0.027 0.009,0.051 0.021,0.072c0.011,0.021 0.027,0.037 0.047,0.049c0.02,0.011 0.044,0.017 0.07,0.017c0.055,0 0.099,-0.021 0.132,-0.064l0.065,0.063c-0.019,0.028 -0.046,0.052 -0.08,0.07c-0.034,0.019 -0.076,0.029 -0.124,0.029c-0.051,0 -0.096,-0.011 -0.135,-0.034c-0.038,-0.022 -0.068,-0.052 -0.088,-0.091c-0.021,-0.039 -0.031,-0.082 -0.031,-0.131l0,-0.02c0,-0.054 0.01,-0.102 0.031,-0.143c0.021,-0.041 0.05,-0.073 0.086,-0.095c0.037,-0.023 0.078,-0.034 0.123,-0.034c0.05,0 0.092,0.011 0.126,0.033c0.034,0.021 0.059,0.052 0.076,0.091c0.016,0.039 0.025,0.085 0.025,0.137l0,0.051Zm-0.12,-0.097c-0.002,-0.034 -0.011,-0.062 -0.028,-0.084c-0.017,-0.022 -0.043,-0.033 -0.079,-0.033c-0.032,0 -0.058,0.011 -0.077,0.033c-0.02,0.022 -0.032,0.053 -0.038,0.093l0.222,0l0,-0.009Z" style="fill:#fff;fill-rule:nonzero;"/></g></g><g transform="matrix(0.938025,0,0,1,3.56653,0)"><g transform="matrix(14,0,0,14,57.5479,0)"><rect x="0.068" y="-0.75" width="0.122" height="0.75" style="fill:#fff;fill-rule:nonzero;"/></g></g><g transform="matrix(0.938025,0,0,1,3.76742,0)"><g transform="matrix(14,0,0,14,60.7894,0)"><path d="M0.038,-0.269c0,-0.051 0.01,-0.098 0.03,-0.138c0.019,-0.041 0.048,-0.073 0.085,-0.096c0.037,-0.023 0.081,-0.035 0.131,-0.035c0.05,0 0.094,0.012 0.132,0.035c0.037,0.023 0.066,0.055 0.085,0.096c0.02,0.04 0.03,0.087 0.03,0.138l0,0.01c0,0.052 -0.01,0.098 -0.03,0.138c-0.019,0.041 -0.048,0.073 -0.085,0.096c-0.037,0.023 -0.081,0.035 -0.131,0.035c-0.051,0 -0.095,-0.012 -0.132,-0.035c-0.037,-0.023 -0.066,-0.055 -0.085,-0.096c-0.02,-0.04 -0.03,-0.086 -0.03,-0.138l0,-0.01Zm0.122,0.01c0,0.05 0.01,0.091 0.031,0.123c0.021,0.032 0.052,0.048 0.094,0.048c0.027,0 0.051,-0.007 0.069,-0.023c0.019,-0.015 0.033,-0.035 0.042,-0.061c0.009,-0.026 0.013,-0.055 0.013,-0.087l0,-0.01c0,-0.032 -0.004,-0.061 -0.013,-0.087c-0.009,-0.026 -0.023,-0.046 -0.042,-0.061c-0.019,-0.016 -0.042,-0.023 -0.07,-0.023c-0.028,0 -0.051,0.007 -0.07,0.023c-0.018,0.015 -0.032,0.035 -0.041,0.061c-0.009,0.026 -0.013,0.055 -0.013,0.087l0,0.01Z" style="fill:#fff;fill-rule:nonzero;"/></g></g><g transform="matrix(0.938025,0,0,1,4.21412,0)"><g transform="matrix(14,0,0,14,67.9971,0)"><path d="M0.318,-0.538c0.044,0 0.081,0.011 0.112,0.033c0.032,0.022 0.055,0.054 0.071,0.094c0.016,0.04 0.024,0.087 0.024,0.141l0,0.011c0,0.051 -0.008,0.098 -0.024,0.138c-0.016,0.041 -0.04,0.073 -0.071,0.096c-0.031,0.023 -0.068,0.035 -0.111,0.035c-0.056,0 -0.102,-0.019 -0.137,-0.057l0,0.25l-0.122,0l0,-0.731l0.112,0l0.005,0.053c0.035,-0.042 0.082,-0.063 0.141,-0.063Zm0.085,0.268c0,-0.05 -0.01,-0.09 -0.029,-0.122c-0.02,-0.031 -0.05,-0.047 -0.09,-0.047c-0.047,0 -0.082,0.02 -0.102,0.059l0,0.232c0.021,0.04 0.055,0.06 0.103,0.06c0.04,0 0.069,-0.016 0.089,-0.048c0.02,-0.032 0.029,-0.073 0.029,-0.123l0,-0.011Z" style="fill:#fff;fill-rule:nonzero;"/></g></g><g transform="matrix(0.938025,0,0,1,4.67232,0)"><g transform="matrix(14,0,0,14,75.3905,0)"><path d="M0.637,-0.538c0.056,0 0.099,0.016 0.128,0.047c0.03,0.031 0.045,0.081 0.045,0.149l0,0.342l-0.122,0l0,-0.342c0,-0.036 -0.008,-0.062 -0.023,-0.076c-0.016,-0.014 -0.039,-0.021 -0.07,-0.021c-0.025,0 -0.046,0.007 -0.064,0.021c-0.017,0.013 -0.029,0.032 -0.036,0.055l0.001,0.011l0,0.352l-0.122,0l0,-0.341c0,-0.035 -0.008,-0.061 -0.024,-0.076c-0.015,-0.014 -0.039,-0.022 -0.069,-0.022c-0.047,0 -0.08,0.019 -0.099,0.057l0,0.382l-0.122,0l0,-0.528l0.114,0l0.004,0.055c0.018,-0.021 0.04,-0.037 0.065,-0.048c0.026,-0.011 0.055,-0.017 0.088,-0.017c0.033,0 0.062,0.007 0.086,0.02c0.025,0.013 0.044,0.033 0.058,0.06c0.018,-0.025 0.04,-0.045 0.067,-0.059c0.028,-0.014 0.059,-0.021 0.095,-0.021Z" style="fill:#fff;fill-rule:nonzero;"/></g></g><g transform="matrix(0.938025,0,0,1,5.36381,0)"><g transform="matrix(14,0,0,14,86.5481,0)"><path d="M0.507,-0.226l-0.344,0c0.002,0.027 0.009,0.051 0.021,0.072c0.011,0.021 0.027,0.037 0.047,0.049c0.02,0.011 0.044,0.017 0.07,0.017c0.055,0 0.099,-0.021 0.132,-0.064l0.065,0.063c-0.019,0.028 -0.046,0.052 -0.08,0.07c-0.034,0.019 -0.076,0.029 -0.124,0.029c-0.051,0 -0.096,-0.011 -0.135,-0.034c-0.038,-0.022 -0.068,-0.052 -0.088,-0.091c-0.021,-0.039 -0.031,-0.082 -0.031,-0.131l0,-0.02c0,-0.054 0.01,-0.102 0.031,-0.143c0.021,-0.041 0.05,-0.073 0.086,-0.095c0.037,-0.023 0.078,-0.034 0.123,-0.034c0.05,0 0.092,0.011 0.126,0.033c0.034,0.021 0.059,0.052 0.076,0.091c0.016,0.039 0.025,0.085 0.025,0.137l0,0.051Zm-0.12,-0.097c-0.002,-0.034 -0.011,-0.062 -0.028,-0.084c-0.017,-0.022 -0.043,-0.033 -0.079,-0.033c-0.032,0 -0.058,0.011 -0.077,0.033c-0.02,0.022 -0.032,0.053 -0.038,0.093l0.222,0l0,-0.009Z" style="fill:#fff;fill-rule:nonzero;"/></g><g transform="matrix(14,0,0,14,94.0676,0)"><path d="M0.33,-0.538c0.054,0 0.095,0.015 0.124,0.047c0.029,0.031 0.044,0.081 0.044,0.15l0,0.341l-0.122,0l0,-0.342c0,-0.035 -0.007,-0.06 -0.022,-0.075c-0.015,-0.015 -0.039,-0.022 -0.07,-0.022c-0.023,0 -0.043,0.006 -0.061,0.017c-0.018,0.011 -0.032,0.026 -0.043,0.046l0,0.376l-0.121,0l0,-0.528l0.114,0l0.004,0.061c0.019,-0.023 0.041,-0.041 0.067,-0.053c0.026,-0.012 0.055,-0.018 0.086,-0.018Z" style="fill:#fff;fill-rule:nonzero;"/></g><g transform="matrix(14,0,0,14,101.861,0)"><path d="M0.266,-0.091c0.013,0 0.027,-0.001 0.042,-0.005l0,0.094c-0.024,0.008 -0.05,0.012 -0.079,0.012c-0.043,0 -0.077,-0.012 -0.102,-0.036c-0.025,-0.024 -0.037,-0.062 -0.037,-0.114l0,-0.298l-0.086,0l0,-0.09l0.086,0l0,-0.129l0.121,0l0,0.129l0.093,0l0,0.09l-0.093,0l0,0.29c0,0.022 0.005,0.037 0.014,0.045c0.009,0.008 0.023,0.012 0.041,0.012Z" style="fill:#fff;fill-rule:nonzero;"/></g></g></g><g><rect x="0" y="0" width="3.853" height="41.906" style="fill:#fff;"/><rect x="27.672" y="24.767" width="3.746" height="17.139" style="fill:#fff;"/><rect x="27.672" y="0" width="3.746" height="17.139" style="fill:#fff;"/><path d="M0,0l0,3.746l31.418,0l0,-3.746l-31.418,0Z" style="fill:#fff;"/><path d="M0,38.16l0,3.746l31.418,0l0,-3.746l-31.418,0Z" style="fill:#fff;"/><path d="M30.233,38.376l-25.649,-19.74l-3.011,2.317l25.649,19.741l3.011,-2.318Z" style="fill:#fff;"/><path d="M30.233,3.53l-25.649,19.741l-3.011,-2.318l25.649,-19.74l3.011,2.317Z" style="fill:#fff;"/></g></g></svg>