<?xml version="1.0" encoding="UTF-8" standalone="no"?>
<!DOCTYPE svg PUBLIC "-//W3C//DTD SVG 1.1//EN" "http://www.w3.org/Graphics/SVG/1.1/DTD/svg11.dtd">
<svg width="100%" height="100%" viewBox="0 0 236 47" version="1.1" xmlns="http://www.w3.org/2000/svg" xmlns:xlink="http://www.w3.org/1999/xlink" xml:space="preserve" xmlns:serif="http://www.serif.com/" style="fill-rule:evenodd;clip-rule:evenodd;stroke-linejoin:round;stroke-miterlimit:2;">
    <g transform="matrix(1,0,0,1,-568.459,-404.303)">
        <g transform="matrix(1.27589,0,0,1.27589,113.958,-71.8639)">
            <g transform="matrix(0.611913,0,0,0.574581,340.435,-80.7444)">
                <g transform="matrix(1.11443,0,0,1.42197,-18.775,-6.25113)">
                    <rect x="40" y="560" width="4.958" height="45" style="fill:rgb(242,243,243);"/>
                </g>
                <g transform="matrix(1.08347,0,0,0.58157,22.1384,502.19)">
                    <rect x="40" y="560" width="4.958" height="45" style="fill:rgb(242,243,243);"/>
                </g>
                <g transform="matrix(1.08347,0,0,0.58157,22.1384,464.372)">
                    <rect x="40" y="560" width="4.958" height="45" style="fill:rgb(242,243,243);"/>
                </g>
                <g transform="matrix(8.64204e-17,-1.15387,1.00103,5.04404e-17,-534.777,841.926)">
                    <rect x="40" y="560" width="4.958" height="45" style="fill:rgb(242,243,243);"/>
                </g>
                <g transform="matrix(8.64348e-17,-1.15387,1.00103,5.0452e-17,-534.777,900.194)">
                    <rect x="40" y="560" width="4.958" height="45" style="fill:rgb(242,243,243);"/>
                </g>
                <g transform="matrix(1.26672,1.03827,-0.826686,0.67759,-130.143,242.266)">
                    <rect x="341.65" y="326.919" width="29.032" height="5.223" style="fill:rgb(242,243,243);"/>
                </g>
                <g transform="matrix(1.26672,-1.03827,-0.826686,-0.67759,-124.262,1401.92)">
                    <rect x="339.376" y="330.548" width="29.032" height="5.223" style="fill:rgb(242,243,243);"/>
                </g>
            </g>
            <g transform="matrix(1.05682,0,0,1.05682,-21.4158,28.2186)">
                <g id="Horizontal">
                    <g>
                        <g>
                            <g transform="matrix(1.28392,0,0,1.2685,345.565,166.773)">
                                <g transform="matrix(13.0755,0,0,13.0755,33.632,140.365)">
                                    <path d="M0.063,0L0.377,0C0.529,0 0.62,-0.075 0.62,-0.201C0.62,-0.288 0.57,-0.349 0.498,-0.373C0.547,-0.394 0.598,-0.441 0.598,-0.527C0.598,-0.65 0.515,-0.718 0.359,-0.718L0.063,-0.718L0.063,0ZM0.204,-0.426L0.204,-0.596L0.345,-0.596C0.418,-0.596 0.459,-0.567 0.459,-0.511C0.459,-0.454 0.418,-0.426 0.345,-0.426L0.204,-0.426ZM0.204,-0.307L0.367,-0.307C0.439,-0.307 0.478,-0.269 0.478,-0.215C0.478,-0.16 0.439,-0.123 0.367,-0.123L0.204,-0.123L0.204,-0.307Z" style="fill:rgb(242,243,243);fill-rule:nonzero;"/>
                                </g>
                                <g transform="matrix(13.0755,0,0,13.0755,42.3141,140.365)">
                                    <path d="M0.21,-0.267L0.31,-0.267L0.476,0L0.644,0L0.465,-0.281C0.566,-0.31 0.625,-0.383 0.625,-0.492C0.625,-0.64 0.522,-0.718 0.357,-0.718L0.063,-0.718L0.063,0L0.21,0L0.21,-0.267ZM0.21,-0.39L0.21,-0.593L0.349,-0.593C0.435,-0.593 0.479,-0.556 0.479,-0.491C0.479,-0.427 0.435,-0.39 0.349,-0.39L0.21,-0.39Z" style="fill:rgb(242,243,243);fill-rule:nonzero;"/>
                                </g>
                                <g transform="matrix(13.0755,0,0,13.0755,50.9439,140.365)">
                                    <path d="M0.276,-0.718L0.008,0L0.154,0L0.211,-0.154L0.507,-0.154L0.564,0L0.713,0L0.444,-0.718L0.276,-0.718ZM0.358,-0.555L0.46,-0.279L0.257,-0.279L0.358,-0.555Z" style="fill:rgb(242,243,243);fill-rule:nonzero;"/>
                                </g>
                                <g transform="matrix(13.0755,0,0,13.0755,60.2406,140.365)">
                                    <path d="M0.668,-0.718L0.527,-0.718L0.527,-0.247L0.212,-0.718L0.063,-0.718L0.063,0L0.204,0L0.204,-0.495L0.54,0L0.668,0L0.668,-0.718Z" style="fill:rgb(242,243,243);fill-rule:nonzero;"/>
                                </g>
                                <g transform="matrix(13.0755,0,0,13.0755,69.7988,140.365)">
                                    <path d="M0.063,0L0.31,0C0.536,0 0.674,-0.14 0.674,-0.359C0.674,-0.578 0.536,-0.718 0.31,-0.718L0.063,-0.718L0.063,0ZM0.207,-0.126L0.207,-0.592L0.309,-0.592C0.449,-0.592 0.529,-0.501 0.529,-0.359C0.529,-0.218 0.449,-0.126 0.31,-0.126L0.207,-0.126Z" style="fill:rgb(242,243,243);fill-rule:nonzero;"/>
                                </g>
                                <g transform="matrix(13.0755,0,0,13.0755,78.9778,140.365)">
                                    <path d="M0.027,-0.359C0.027,-0.142 0.169,0.011 0.367,0.011C0.564,0.011 0.706,-0.142 0.706,-0.359C0.706,-0.576 0.564,-0.729 0.367,-0.729C0.169,-0.729 0.027,-0.576 0.027,-0.359ZM0.558,-0.359C0.558,-0.212 0.479,-0.118 0.367,-0.118C0.254,-0.118 0.175,-0.212 0.175,-0.359C0.175,-0.506 0.254,-0.6 0.367,-0.6C0.479,-0.6 0.558,-0.506 0.558,-0.359Z" style="fill:rgb(242,243,243);fill-rule:nonzero;"/>
                                </g>
                                <g transform="matrix(13.0755,0,0,13.0755,88.5621,140.365)">
                                    <path d="M0.668,-0.718L0.527,-0.718L0.527,-0.247L0.212,-0.718L0.063,-0.718L0.063,0L0.204,0L0.204,-0.495L0.54,0L0.668,0L0.668,-0.718Z" style="fill:rgb(242,243,243);fill-rule:nonzero;"/>
                                </g>
                                <g transform="matrix(13.0755,0,0,13.0755,100.892,140.365)">
                                    <path d="M0.175,-0.359C0.175,-0.505 0.252,-0.6 0.362,-0.6C0.44,-0.6 0.497,-0.551 0.517,-0.471L0.655,-0.517C0.613,-0.647 0.511,-0.729 0.362,-0.729C0.168,-0.729 0.027,-0.576 0.027,-0.359C0.027,-0.142 0.168,0.011 0.362,0.011C0.511,0.011 0.613,-0.071 0.655,-0.201L0.517,-0.247C0.497,-0.167 0.44,-0.118 0.362,-0.118C0.252,-0.118 0.175,-0.213 0.175,-0.359Z" style="fill:rgb(242,243,243);fill-rule:nonzero;"/>
                                </g>
                                <g transform="matrix(13.0755,0,0,13.0755,109.666,140.365)">
                                    <path d="M0.027,-0.359C0.027,-0.142 0.169,0.011 0.367,0.011C0.564,0.011 0.706,-0.142 0.706,-0.359C0.706,-0.576 0.564,-0.729 0.367,-0.729C0.169,-0.729 0.027,-0.576 0.027,-0.359ZM0.558,-0.359C0.558,-0.212 0.479,-0.118 0.367,-0.118C0.254,-0.118 0.175,-0.212 0.175,-0.359C0.175,-0.506 0.254,-0.6 0.367,-0.6C0.479,-0.6 0.558,-0.506 0.558,-0.359Z" style="fill:rgb(242,243,243);fill-rule:nonzero;"/>
                                </g>
                                <g transform="matrix(13.0755,0,0,13.0755,119.446,140.365)">
                                    <path d="M0.21,-0.267L0.31,-0.267L0.476,0L0.644,0L0.465,-0.281C0.566,-0.31 0.625,-0.383 0.625,-0.492C0.625,-0.64 0.522,-0.718 0.357,-0.718L0.063,-0.718L0.063,0L0.21,0L0.21,-0.267ZM0.21,-0.39L0.21,-0.593L0.349,-0.593C0.435,-0.593 0.479,-0.556 0.479,-0.491C0.479,-0.427 0.435,-0.39 0.349,-0.39L0.21,-0.39Z" style="fill:rgb(242,243,243);fill-rule:nonzero;"/>
                                </g>
                                <g transform="matrix(13.0755,0,0,13.0755,128.338,140.365)">
                                    <path d="M0.063,-0.718L0.063,0L0.559,0L0.559,-0.127L0.208,-0.127L0.208,-0.305L0.502,-0.305L0.502,-0.431L0.208,-0.431L0.208,-0.591L0.559,-0.591L0.559,-0.718L0.063,-0.718Z" style="fill:rgb(242,243,243);fill-rule:nonzero;"/>
                                </g>
                                <g transform="matrix(13.0755,0,0,13.0755,136.275,140.365)">
                                    <path d="M0.333,-0.427L0.158,-0.718L-0.002,-0.718L0.258,-0.292L0.258,0L0.405,0L0.405,-0.292L0.664,-0.718L0.508,-0.718L0.333,-0.427Z" style="fill:rgb(242,243,243);fill-rule:nonzero;"/>
                                </g>
                            </g>
                            <g transform="matrix(0.972469,0,0,0.912201,389.066,358.928)">
                                <g transform="matrix(0.938025,0,0,1,0,0)">
                                    <g transform="matrix(14,0,0,14,0,0)">
                                        <path d="M0.411,-0.718L0.278,-0.191L0.142,-0.718L0.01,-0.718L0.205,0L0.331,0L0.466,-0.506L0.602,0L0.728,0L0.922,-0.718L0.794,-0.718L0.658,-0.191L0.524,-0.718L0.411,-0.718Z" style="fill:rgb(242,243,243);fill-rule:nonzero;"/>
                                    </g>
                                </g>
                                <g transform="matrix(0.938025,0,0,1,0.734117,0)">
                                    <g transform="matrix(14,0,0,14,11.8454,0)">
                                        <path d="M0.285,0.011C0.39,0.011 0.473,-0.044 0.51,-0.136L0.407,-0.175C0.391,-0.121 0.344,-0.091 0.285,-0.091C0.208,-0.091 0.154,-0.146 0.145,-0.236L0.513,-0.236L0.513,-0.276C0.513,-0.42 0.432,-0.535 0.28,-0.535C0.134,-0.535 0.03,-0.416 0.03,-0.262C0.03,-0.1 0.135,0.011 0.285,0.011ZM0.279,-0.434C0.355,-0.434 0.391,-0.384 0.392,-0.326L0.151,-0.326C0.169,-0.397 0.217,-0.434 0.279,-0.434Z" style="fill:rgb(242,243,243);fill-rule:nonzero;"/>
                                    </g>
                                    <g transform="matrix(14,0,0,14,19.4054,0)">
                                        <path d="M0.334,0.011C0.481,0.011 0.565,-0.113 0.565,-0.262C0.565,-0.411 0.481,-0.535 0.334,-0.535C0.266,-0.535 0.216,-0.508 0.183,-0.469L0.183,-0.718L0.063,-0.718L0.063,0L0.183,0L0.183,-0.055C0.216,-0.016 0.266,0.011 0.334,0.011ZM0.18,-0.277C0.18,-0.376 0.236,-0.43 0.31,-0.43C0.397,-0.43 0.444,-0.362 0.444,-0.262C0.444,-0.162 0.397,-0.094 0.31,-0.094C0.236,-0.094 0.18,-0.149 0.18,-0.246L0.18,-0.277Z" style="fill:rgb(242,243,243);fill-rule:nonzero;"/>
                                    </g>
                                    <g transform="matrix(14,0,0,14,30.6194,0)">
                                        <path d="M0.068,0L0.308,0C0.531,0 0.669,-0.14 0.669,-0.359C0.669,-0.578 0.531,-0.718 0.308,-0.718L0.068,-0.718L0.068,0ZM0.193,-0.11L0.193,-0.608L0.307,-0.608C0.456,-0.608 0.543,-0.511 0.543,-0.359C0.543,-0.208 0.456,-0.11 0.308,-0.11L0.193,-0.11Z" style="fill:rgb(242,243,243);fill-rule:nonzero;"/>
                                    </g>
                                    <g transform="matrix(14,0,0,14,40.4334,0)">
                                        <path d="M0.285,0.011C0.39,0.011 0.473,-0.044 0.51,-0.136L0.407,-0.175C0.391,-0.121 0.344,-0.091 0.285,-0.091C0.208,-0.091 0.154,-0.146 0.145,-0.236L0.513,-0.236L0.513,-0.276C0.513,-0.42 0.432,-0.535 0.28,-0.535C0.134,-0.535 0.03,-0.416 0.03,-0.262C0.03,-0.1 0.135,0.011 0.285,0.011ZM0.279,-0.434C0.355,-0.434 0.391,-0.384 0.392,-0.326L0.151,-0.326C0.169,-0.397 0.217,-0.434 0.279,-0.434Z" style="fill:rgb(242,243,243);fill-rule:nonzero;"/>
                                    </g>
                                    <g transform="matrix(14,0,0,14,47.9934,0)">
                                        <path d="M0.315,0L0.507,-0.525L0.383,-0.525L0.256,-0.144L0.128,-0.525L0.002,-0.525L0.194,0L0.315,0Z" style="fill:rgb(242,243,243);fill-rule:nonzero;"/>
                                    </g>
                                    <g transform="matrix(14,0,0,14,55.1194,0)">
                                        <path d="M0.285,0.011C0.39,0.011 0.473,-0.044 0.51,-0.136L0.407,-0.175C0.391,-0.121 0.344,-0.091 0.285,-0.091C0.208,-0.091 0.154,-0.146 0.145,-0.236L0.513,-0.236L0.513,-0.276C0.513,-0.42 0.432,-0.535 0.28,-0.535C0.134,-0.535 0.03,-0.416 0.03,-0.262C0.03,-0.1 0.135,0.011 0.285,0.011ZM0.279,-0.434C0.355,-0.434 0.391,-0.384 0.392,-0.326L0.151,-0.326C0.169,-0.397 0.217,-0.434 0.279,-0.434Z" style="fill:rgb(242,243,243);fill-rule:nonzero;"/>
                                    </g>
                                    <g transform="matrix(14,0,0,14,62.6794,0)">
                                        <rect x="0.063" y="-0.718" width="0.12" height="0.718" style="fill:rgb(242,243,243);fill-rule:nonzero;"/>
                                    </g>
                                    <g transform="matrix(14,0,0,14,66.1234,0)">
                                        <path d="M0.536,-0.262C0.536,-0.425 0.431,-0.535 0.283,-0.535C0.135,-0.535 0.03,-0.425 0.03,-0.262C0.03,-0.099 0.135,0.011 0.283,0.011C0.431,0.011 0.536,-0.099 0.536,-0.262ZM0.151,-0.262C0.151,-0.369 0.202,-0.434 0.283,-0.434C0.364,-0.434 0.415,-0.369 0.415,-0.262C0.415,-0.155 0.364,-0.09 0.283,-0.09C0.202,-0.09 0.151,-0.155 0.151,-0.262Z" style="fill:rgb(242,243,243);fill-rule:nonzero;"/>
                                    </g>
                                    <g transform="matrix(14,0,0,14,74.0474,0)">
                                        <path d="M0.334,0.011C0.481,0.011 0.565,-0.113 0.565,-0.262C0.565,-0.411 0.481,-0.535 0.334,-0.535C0.266,-0.535 0.216,-0.508 0.183,-0.469L0.183,-0.525L0.063,-0.525L0.063,0.18L0.183,0.18L0.183,-0.055C0.216,-0.016 0.266,0.011 0.334,0.011ZM0.18,-0.277C0.18,-0.376 0.236,-0.43 0.31,-0.43C0.397,-0.43 0.444,-0.362 0.444,-0.262C0.444,-0.162 0.397,-0.094 0.31,-0.094C0.236,-0.094 0.18,-0.149 0.18,-0.246L0.18,-0.277Z" style="fill:rgb(242,243,243);fill-rule:nonzero;"/>
                                    </g>
                                    <g transform="matrix(14,0,0,14,82.3774,0)">
                                        <path d="M0.183,-0.308C0.183,-0.383 0.236,-0.423 0.287,-0.423C0.351,-0.423 0.375,-0.376 0.375,-0.311L0.375,0L0.495,0L0.495,-0.308C0.495,-0.383 0.548,-0.423 0.599,-0.423C0.663,-0.423 0.687,-0.376 0.687,-0.311L0.687,0L0.807,0L0.807,-0.346C0.807,-0.459 0.737,-0.535 0.629,-0.535C0.548,-0.535 0.498,-0.496 0.466,-0.462C0.437,-0.507 0.39,-0.535 0.327,-0.535C0.257,-0.535 0.212,-0.504 0.183,-0.469L0.183,-0.525L0.063,-0.525L0.063,0L0.183,0L0.183,-0.308Z" style="fill:rgb(242,243,243);fill-rule:nonzero;"/>
                                    </g>
                                    <g transform="matrix(14,0,0,14,94.5014,0)">
                                        <path d="M0.285,0.011C0.39,0.011 0.473,-0.044 0.51,-0.136L0.407,-0.175C0.391,-0.121 0.344,-0.091 0.285,-0.091C0.208,-0.091 0.154,-0.146 0.145,-0.236L0.513,-0.236L0.513,-0.276C0.513,-0.42 0.432,-0.535 0.28,-0.535C0.134,-0.535 0.03,-0.416 0.03,-0.262C0.03,-0.1 0.135,0.011 0.285,0.011ZM0.279,-0.434C0.355,-0.434 0.391,-0.384 0.392,-0.326L0.151,-0.326C0.169,-0.397 0.217,-0.434 0.279,-0.434Z" style="fill:rgb(242,243,243);fill-rule:nonzero;"/>
                                    </g>
                                    <g transform="matrix(14,0,0,14,102.061,0)">
                                        <path d="M0.063,0L0.183,0L0.183,-0.308C0.183,-0.383 0.238,-0.423 0.292,-0.423C0.358,-0.423 0.384,-0.376 0.384,-0.311L0.384,0L0.504,0L0.504,-0.346C0.504,-0.459 0.438,-0.535 0.328,-0.535C0.26,-0.535 0.213,-0.504 0.183,-0.469L0.183,-0.525L0.063,-0.525L0.063,0Z" style="fill:rgb(242,243,243);fill-rule:nonzero;"/>
                                    </g>
                                    <g transform="matrix(14,0,0,14,109.943,0)">
                                        <path d="M0.074,-0.132C0.074,-0.025 0.128,0.006 0.228,0.006C0.259,0.006 0.289,0.003 0.311,-0.001L0.311,-0.102C0.293,-0.1 0.282,-0.099 0.262,-0.099C0.219,-0.099 0.192,-0.104 0.192,-0.151L0.192,-0.423L0.302,-0.423L0.302,-0.525L0.192,-0.525L0.192,-0.679L0.074,-0.679L0.074,-0.525L0.001,-0.525L0.001,-0.423L0.074,-0.423L0.074,-0.132Z" style="fill:rgb(242,243,243);fill-rule:nonzero;"/>
                                    </g>
                                </g>
                            </g>
                        </g>
                    </g>
                </g>
            </g>
        </g>
    </g>
</svg>
