<?xml version="1.0" encoding="UTF-8" standalone="no"?><!DOCTYPE svg PUBLIC "-//W3C//DTD SVG 1.1//EN" "http://www.w3.org/Graphics/SVG/1.1/DTD/svg11.dtd"><svg width="100%" height="100%" viewBox="0 0 240 54" version="1.1" xmlns="http://www.w3.org/2000/svg" xmlns:xlink="http://www.w3.org/1999/xlink" xml:space="preserve" xmlns:serif="http://www.serif.com/" style="fill-rule:evenodd;clip-rule:evenodd;stroke-linejoin:round;stroke-miterlimit:2;"><g><g><rect x="0" y="0" width="4.917" height="53.468" style="fill:#f9f9fa;"/><rect x="35.306" y="31.6" width="4.78" height="21.868" style="fill:#f9f9fa;"/><rect x="35.306" y="0" width="4.78" height="21.868" style="fill:#f9f9fa;"/><path d="M0,0l0,4.78l40.086,0l0,-4.78l-40.086,0Z" style="fill:#f9f9fa;"/><path d="M0,48.688l0,4.78l40.086,0l0,-4.78l-40.086,0Z" style="fill:#f9f9fa;"/><path d="M38.574,48.964l-32.725,-25.187l-3.842,2.957l32.725,25.187l3.842,-2.957Z" style="fill:#f9f9fa;"/><path d="M38.574,4.504l-32.725,25.187l-3.842,-2.957l32.725,-25.187l3.842,2.957Z" style="fill:#f9f9fa;"/></g><g id="Horizontal"><g><g><g transform="matrix(1.73123,0,0,1.71044,-10.952,-208.731)"><g transform="matrix(13.0755,0,0,13.0755,33.632,140.365)"><path d="M0.063,0l0.314,0c0.152,0 0.243,-0.075 0.243,-0.201c0,-0.087 -0.05,-0.148 -0.122,-0.172c0.049,-0.021 0.1,-0.068 0.1,-0.154c0,-0.123 -0.083,-0.191 -0.239,-0.191l-0.296,0l0,0.718Zm0.141,-0.426l0,-0.17l0.141,0c0.073,0 0.114,0.029 0.114,0.085c0,0.057 -0.041,0.085 -0.114,0.085l-0.141,0Zm0,0.119l0.163,0c0.072,0 0.111,0.038 0.111,0.092c0,0.055 -0.039,0.092 -0.111,0.092l-0.163,0l0,-0.184Z" style="fill:#f9f9fa;fill-rule:nonzero;"/></g><g transform="matrix(13.0755,0,0,13.0755,42.3141,140.365)"><path d="M0.21,-0.267l0.1,0l0.166,0.267l0.168,0l-0.179,-0.281c0.101,-0.029 0.16,-0.102 0.16,-0.211c0,-0.148 -0.103,-0.226 -0.268,-0.226l-0.294,0l0,0.718l0.147,0l0,-0.267Zm0,-0.123l0,-0.203l0.139,0c0.086,0 0.13,0.037 0.13,0.102c0,0.064 -0.044,0.101 -0.13,0.101l-0.139,0Z" style="fill:#f9f9fa;fill-rule:nonzero;"/></g><g transform="matrix(13.0755,0,0,13.0755,50.9439,140.365)"><path d="M0.276,-0.718l-0.268,0.718l0.146,0l0.057,-0.154l0.296,0l0.057,0.154l0.149,0l-0.269,-0.718l-0.168,0Zm0.082,0.163l0.102,0.276l-0.203,0l0.101,-0.276Z" style="fill:#f9f9fa;fill-rule:nonzero;"/></g><g transform="matrix(13.0755,0,0,13.0755,60.2406,140.365)"><path d="M0.668,-0.718l-0.141,0l0,0.471l-0.315,-0.471l-0.149,0l0,0.718l0.141,0l0,-0.495l0.336,0.495l0.128,0l0,-0.718Z" style="fill:#f9f9fa;fill-rule:nonzero;"/></g><g transform="matrix(13.0755,0,0,13.0755,69.7988,140.365)"><path d="M0.063,0l0.247,0c0.226,0 0.364,-0.14 0.364,-0.359c0,-0.219 -0.138,-0.359 -0.364,-0.359l-0.247,0l0,0.718Zm0.144,-0.126l0,-0.466l0.102,0c0.14,0 0.22,0.091 0.22,0.233c0,0.141 -0.08,0.233 -0.219,0.233l-0.103,0Z" style="fill:#f9f9fa;fill-rule:nonzero;"/></g><g transform="matrix(13.0755,0,0,13.0755,78.9778,140.365)"><path d="M0.027,-0.359c0,0.217 0.142,0.37 0.34,0.37c0.197,0 0.339,-0.153 0.339,-0.37c0,-0.217 -0.142,-0.37 -0.339,-0.37c-0.198,0 -0.34,0.153 -0.34,0.37Zm0.531,0c0,0.147 -0.079,0.241 -0.191,0.241c-0.113,0 -0.192,-0.094 -0.192,-0.241c0,-0.147 0.079,-0.241 0.192,-0.241c0.112,0 0.191,0.094 0.191,0.241Z" style="fill:#f9f9fa;fill-rule:nonzero;"/></g><g transform="matrix(13.0755,0,0,13.0755,88.5621,140.365)"><path d="M0.668,-0.718l-0.141,0l0,0.471l-0.315,-0.471l-0.149,0l0,0.718l0.141,0l0,-0.495l0.336,0.495l0.128,0l0,-0.718Z" style="fill:#f9f9fa;fill-rule:nonzero;"/></g><g transform="matrix(13.0755,0,0,13.0755,100.892,140.365)"><path d="M0.175,-0.359c0,-0.146 0.077,-0.241 0.187,-0.241c0.078,0 0.135,0.049 0.155,0.129l0.138,-0.046c-0.042,-0.13 -0.144,-0.212 -0.293,-0.212c-0.194,0 -0.335,0.153 -0.335,0.37c0,0.217 0.141,0.37 0.335,0.37c0.149,0 0.251,-0.082 0.293,-0.212l-0.138,-0.046c-0.02,0.08 -0.077,0.129 -0.155,0.129c-0.11,0 -0.187,-0.095 -0.187,-0.241Z" style="fill:#f9f9fa;fill-rule:nonzero;"/></g><g transform="matrix(13.0755,0,0,13.0755,109.666,140.365)"><path d="M0.027,-0.359c0,0.217 0.142,0.37 0.34,0.37c0.197,0 0.339,-0.153 0.339,-0.37c0,-0.217 -0.142,-0.37 -0.339,-0.37c-0.198,0 -0.34,0.153 -0.34,0.37Zm0.531,0c0,0.147 -0.079,0.241 -0.191,0.241c-0.113,0 -0.192,-0.094 -0.192,-0.241c0,-0.147 0.079,-0.241 0.192,-0.241c0.112,0 0.191,0.094 0.191,0.241Z" style="fill:#f9f9fa;fill-rule:nonzero;"/></g><g transform="matrix(13.0755,0,0,13.0755,119.446,140.365)"><path d="M0.21,-0.267l0.1,0l0.166,0.267l0.168,0l-0.179,-0.281c0.101,-0.029 0.16,-0.102 0.16,-0.211c0,-0.148 -0.103,-0.226 -0.268,-0.226l-0.294,0l0,0.718l0.147,0l0,-0.267Zm0,-0.123l0,-0.203l0.139,0c0.086,0 0.13,0.037 0.13,0.102c0,0.064 -0.044,0.101 -0.13,0.101l-0.139,0Z" style="fill:#f9f9fa;fill-rule:nonzero;"/></g><g transform="matrix(13.0755,0,0,13.0755,128.338,140.365)"><path d="M0.063,-0.718l0,0.718l0.496,0l0,-0.127l-0.351,0l0,-0.178l0.294,0l0,-0.126l-0.294,0l0,-0.16l0.351,0l0,-0.127l-0.496,0Z" style="fill:#f9f9fa;fill-rule:nonzero;"/></g><g transform="matrix(13.0755,0,0,13.0755,136.275,140.365)"><path d="M0.333,-0.427l-0.175,-0.291l-0.16,0l0.26,0.426l0,0.292l0.147,0l0,-0.292l0.259,-0.426l-0.156,0l-0.175,0.291Z" style="fill:#f9f9fa;fill-rule:nonzero;"/></g></g><g transform="matrix(1.31127,0,0,1.23,47.7031,50.3694)"><g transform="matrix(0.938025,0,0,1,0,0)"><g transform="matrix(14,0,0,14,0,0)"><path d="M0.411,-0.718l-0.133,0.527l-0.136,-0.527l-0.132,0l0.195,0.718l0.126,0l0.135,-0.506l0.136,0.506l0.126,0l0.194,-0.718l-0.128,0l-0.136,0.527l-0.134,-0.527l-0.113,0Z" style="fill:#f9f9fa;fill-rule:nonzero;"/></g></g><g transform="matrix(0.938025,0,0,1,0.734117,0)"><g transform="matrix(14,0,0,14,11.8454,0)"><path d="M0.285,0.011c0.105,0 0.188,-0.055 0.225,-0.147l-0.103,-0.039c-0.016,0.054 -0.063,0.084 -0.122,0.084c-0.077,0 -0.131,-0.055 -0.14,-0.145l0.368,0l0,-0.04c0,-0.144 -0.081,-0.259 -0.233,-0.259c-0.146,0 -0.25,0.119 -0.25,0.273c0,0.162 0.105,0.273 0.255,0.273Zm-0.006,-0.445c0.076,0 0.112,0.05 0.113,0.108l-0.241,0c0.018,-0.071 0.066,-0.108 0.128,-0.108Z" style="fill:#f9f9fa;fill-rule:nonzero;"/></g><g transform="matrix(14,0,0,14,19.4054,0)"><path d="M0.334,0.011c0.147,0 0.231,-0.124 0.231,-0.273c0,-0.149 -0.084,-0.273 -0.231,-0.273c-0.068,0 -0.118,0.027 -0.151,0.066l0,-0.249l-0.12,0l0,0.718l0.12,0l0,-0.055c0.033,0.039 0.083,0.066 0.151,0.066Zm-0.154,-0.288c0,-0.099 0.056,-0.153 0.13,-0.153c0.087,0 0.134,0.068 0.134,0.168c0,0.1 -0.047,0.168 -0.134,0.168c-0.074,0 -0.13,-0.055 -0.13,-0.152l0,-0.031Z" style="fill:#f9f9fa;fill-rule:nonzero;"/></g><g transform="matrix(14,0,0,14,30.6194,0)"><path d="M0.068,0l0.24,0c0.223,0 0.361,-0.14 0.361,-0.359c0,-0.219 -0.138,-0.359 -0.361,-0.359l-0.24,0l0,0.718Zm0.125,-0.11l0,-0.498l0.114,0c0.149,0 0.236,0.097 0.236,0.249c0,0.151 -0.087,0.249 -0.235,0.249l-0.115,0Z" style="fill:#f9f9fa;fill-rule:nonzero;"/></g><g transform="matrix(14,0,0,14,40.4334,0)"><path d="M0.285,0.011c0.105,0 0.188,-0.055 0.225,-0.147l-0.103,-0.039c-0.016,0.054 -0.063,0.084 -0.122,0.084c-0.077,0 -0.131,-0.055 -0.14,-0.145l0.368,0l0,-0.04c0,-0.144 -0.081,-0.259 -0.233,-0.259c-0.146,0 -0.25,0.119 -0.25,0.273c0,0.162 0.105,0.273 0.255,0.273Zm-0.006,-0.445c0.076,0 0.112,0.05 0.113,0.108l-0.241,0c0.018,-0.071 0.066,-0.108 0.128,-0.108Z" style="fill:#f9f9fa;fill-rule:nonzero;"/></g><g transform="matrix(14,0,0,14,47.9934,0)"><path d="M0.315,0l0.192,-0.525l-0.124,0l-0.127,0.381l-0.128,-0.381l-0.126,0l0.192,0.525l0.121,0Z" style="fill:#f9f9fa;fill-rule:nonzero;"/></g><g transform="matrix(14,0,0,14,55.1194,0)"><path d="M0.285,0.011c0.105,0 0.188,-0.055 0.225,-0.147l-0.103,-0.039c-0.016,0.054 -0.063,0.084 -0.122,0.084c-0.077,0 -0.131,-0.055 -0.14,-0.145l0.368,0l0,-0.04c0,-0.144 -0.081,-0.259 -0.233,-0.259c-0.146,0 -0.25,0.119 -0.25,0.273c0,0.162 0.105,0.273 0.255,0.273Zm-0.006,-0.445c0.076,0 0.112,0.05 0.113,0.108l-0.241,0c0.018,-0.071 0.066,-0.108 0.128,-0.108Z" style="fill:#f9f9fa;fill-rule:nonzero;"/></g><g transform="matrix(14,0,0,14,62.6794,0)"><rect x="0.063" y="-0.718" width="0.12" height="0.718" style="fill:#f9f9fa;fill-rule:nonzero;"/></g><g transform="matrix(14,0,0,14,66.1234,0)"><path d="M0.536,-0.262c0,-0.163 -0.105,-0.273 -0.253,-0.273c-0.148,0 -0.253,0.11 -0.253,0.273c0,0.163 0.105,0.273 0.253,0.273c0.148,0 0.253,-0.11 0.253,-0.273Zm-0.385,0c0,-0.107 0.051,-0.172 0.132,-0.172c0.081,0 0.132,0.065 0.132,0.172c0,0.107 -0.051,0.172 -0.132,0.172c-0.081,0 -0.132,-0.065 -0.132,-0.172Z" style="fill:#f9f9fa;fill-rule:nonzero;"/></g><g transform="matrix(14,0,0,14,74.0474,0)"><path d="M0.334,0.011c0.147,0 0.231,-0.124 0.231,-0.273c0,-0.149 -0.084,-0.273 -0.231,-0.273c-0.068,0 -0.118,0.027 -0.151,0.066l0,-0.056l-0.12,0l0,0.705l0.12,0l0,-0.235c0.033,0.039 0.083,0.066 0.151,0.066Zm-0.154,-0.288c0,-0.099 0.056,-0.153 0.13,-0.153c0.087,0 0.134,0.068 0.134,0.168c0,0.1 -0.047,0.168 -0.134,0.168c-0.074,0 -0.13,-0.055 -0.13,-0.152l0,-0.031Z" style="fill:#f9f9fa;fill-rule:nonzero;"/></g><g transform="matrix(14,0,0,14,82.3774,0)"><path d="M0.183,-0.308c0,-0.075 0.053,-0.115 0.104,-0.115c0.064,0 0.088,0.047 0.088,0.112l0,0.311l0.12,0l0,-0.308c0,-0.075 0.053,-0.115 0.104,-0.115c0.064,0 0.088,0.047 0.088,0.112l0,0.311l0.12,0l0,-0.346c0,-0.113 -0.07,-0.189 -0.178,-0.189c-0.081,0 -0.131,0.039 -0.163,0.073c-0.029,-0.045 -0.076,-0.073 -0.139,-0.073c-0.07,0 -0.115,0.031 -0.144,0.066l0,-0.056l-0.12,0l0,0.525l0.12,0l0,-0.308Z" style="fill:#f9f9fa;fill-rule:nonzero;"/></g><g transform="matrix(14,0,0,14,94.5014,0)"><path d="M0.285,0.011c0.105,0 0.188,-0.055 0.225,-0.147l-0.103,-0.039c-0.016,0.054 -0.063,0.084 -0.122,0.084c-0.077,0 -0.131,-0.055 -0.14,-0.145l0.368,0l0,-0.04c0,-0.144 -0.081,-0.259 -0.233,-0.259c-0.146,0 -0.25,0.119 -0.25,0.273c0,0.162 0.105,0.273 0.255,0.273Zm-0.006,-0.445c0.076,0 0.112,0.05 0.113,0.108l-0.241,0c0.018,-0.071 0.066,-0.108 0.128,-0.108Z" style="fill:#f9f9fa;fill-rule:nonzero;"/></g><g transform="matrix(14,0,0,14,102.061,0)"><path d="M0.063,0l0.12,0l0,-0.308c0,-0.075 0.055,-0.115 0.109,-0.115c0.066,0 0.092,0.047 0.092,0.112l0,0.311l0.12,0l0,-0.346c0,-0.113 -0.066,-0.189 -0.176,-0.189c-0.068,0 -0.115,0.031 -0.145,0.066l0,-0.056l-0.12,0l0,0.525Z" style="fill:#f9f9fa;fill-rule:nonzero;"/></g><g transform="matrix(14,0,0,14,109.943,0)"><path d="M0.074,-0.132c0,0.107 0.054,0.138 0.154,0.138c0.031,0 0.061,-0.003 0.083,-0.007l0,-0.101c-0.018,0.002 -0.029,0.003 -0.049,0.003c-0.043,0 -0.07,-0.005 -0.07,-0.052l0,-0.272l0.11,0l0,-0.102l-0.11,0l0,-0.154l-0.118,0l0,0.154l-0.073,0l0,0.102l0.073,0l0,0.291Z" style="fill:#f9f9fa;fill-rule:nonzero;"/></g></g></g></g></g></g></g></svg>