<?xml version="1.0" encoding="UTF-8" standalone="no"?>
<!DOCTYPE svg PUBLIC "-//W3C//DTD SVG 1.1//EN" "http://www.w3.org/Graphics/SVG/1.1/DTD/svg11.dtd">
<svg width="100%" height="100%" viewBox="0 0 289 60" version="1.1" xmlns="http://www.w3.org/2000/svg" xmlns:xlink="http://www.w3.org/1999/xlink" xml:space="preserve" xmlns:serif="http://www.serif.com/" style="fill-rule:evenodd;clip-rule:evenodd;stroke-linejoin:round;stroke-miterlimit:2;">
    <g transform="matrix(1,0,0,1,-95.9594,-197.217)">
        <g transform="matrix(1,0,0,1,89,179.5)">
            <g id="Hand" transform="matrix(0.718639,0,0,0.718639,76.5926,-15.733)">
                <path d="M246.895,79.111C246.097,78.896 244.708,78.155 242.32,79.111C239.803,80.119 238.83,86.756 233.494,90.979C230.8,93.11 227.794,94.339 224.262,94.696C221.161,95.009 219.308,100.643 221.334,100.643C225.321,100.643 226.767,100.395 229.57,99.217C229.735,99.147 229.897,99.074 230.055,98.998C234.735,96.735 236.855,94.233 237.892,92.913C240.699,89.343 242.603,83.59 245.701,83.59C248.235,83.59 247.91,84.454 250.465,90.69C251.296,92.719 249.059,94.992 247.91,97.972C245.852,103.312 248.399,104.014 248.752,107.892C249.118,111.911 249.553,114.58 250.465,116.268C251.461,118.113 260.795,119.596 267.817,126.431C269.44,128.01 277.241,127.454 278.733,126.985C280.162,126.535 281.234,123.614 276.765,123.614C275.344,123.614 272.506,124.362 269.832,122.809C269.4,122.558 266.46,120.035 262.985,118.113C259.175,116.005 255.78,115.66 253.936,113.128C252.015,110.491 251.753,106.532 251.461,102.007C251.127,96.826 252.887,96.826 255.114,96.826C258.317,96.826 256.564,102.282 257.525,105.817C258.12,108.003 265.957,113.896 267.546,114.148C269.328,114.43 269.238,112.723 271.056,112.429C272.977,112.118 293.168,128.635 294.642,129.455C298.749,131.74 306.145,125.375 303.827,121.298C301.563,117.315 289.002,105.796 287.687,103.859C286.952,102.776 282.238,91.173 282.238,85.581C282.238,82.917 279.334,81.496 279.298,80.012C279.263,78.527 279.475,75.487 278.733,75.452C277.99,75.416 274.419,80.754 272.582,80.012C270.745,79.269 269.188,78.209 268.799,79.269C268.411,80.33 267.456,87.046 264.628,86.057C261.8,85.067 260.563,84.289 260.952,83.193C261.341,82.097 273.995,69.929 274.809,69.69C275.73,69.418 276.47,67.604 281.172,72.199C285.767,76.76 290.744,80.109 290.744,82.976C290.744,88.844 290.525,92.428 292.664,92.428C295.49,92.428 293.819,86.191 294.642,87.064C295.826,88.319 300.897,92.448 301.074,93.827C301.251,95.205 299.024,103.59 298.635,105.817C298.246,108.044 299.978,109.494 301.074,108.469C302.17,107.443 305.893,93.972 304.797,92.169C303.701,90.366 284.341,69.098 279.298,65.761C276.312,63.785 274.505,63.785 259.221,79.111C258.506,79.829 256.301,81.087 253.936,81.009C250.966,80.911 247.742,79.34 246.895,79.111ZM255.114,86.057C254.004,84.96 253.936,89.413 255.591,90.979C260.943,96.039 263.955,101.444 266.557,103.446C273.232,108.583 279.72,113.037 281.881,114.716C289.512,120.646 295.032,125.794 296.61,125.794C297.429,125.794 301.066,124.75 298.549,121.921C296.127,119.198 291.044,113.462 288.839,111.507C287.869,110.646 277.475,101.378 274.24,98.381C267.559,92.192 261.334,92.207 255.114,86.057ZM278.874,91.844C277.288,92.16 273.419,97.439 278.874,95.217C280.615,94.509 279.442,91.731 278.874,91.844ZM269.205,89.133C269.205,88.003 272.355,83.906 273.797,83.59C275.666,83.181 277.293,84.337 277.259,85.445C277.225,86.554 274.936,89.627 273.594,90.242C272.251,90.856 269.205,90.641 269.205,89.133Z" style="fill:rgb(58,70,69);"/>
            </g>
            <g transform="matrix(1,0,0,1,-14,0)">
                <g id="E" transform="matrix(1,0,0,1,-2,0)">
                    <path d="M251.632,52.233C253.304,52.393 253.35,52.327 254.942,52.264C257.028,52.182 258.355,51.971 259.124,52.853C260.117,53.993 257.711,55.199 256.499,55.821C254.583,56.803 250.261,57.035 247.628,55.559C244.639,53.884 243.659,51.163 243.328,49.694C242.962,48.073 242.646,43.46 244.639,41.012C245.676,39.739 247.39,37.311 251.632,37.205C255.874,37.099 258.127,40.141 258.381,40.725C258.787,41.663 259.402,46.67 256.132,47.533C252.862,48.395 248.279,47.189 247.628,48.755C247.029,50.198 249.257,52.004 251.632,52.233ZM250.636,40.725C245.849,42.448 247.628,45.182 249.484,44.962C252.104,44.65 254.877,44.769 254.942,43.704C255.126,40.725 252.023,40.226 250.636,40.725Z" style="fill:rgb(58,70,69);"/>
                </g>
                <g id="T" transform="matrix(1,0,0,1,-2,0)">
                    <path d="M235.036,24.019C233.948,24.121 230.338,26.229 230.581,27.542C231.037,30.01 232.702,28.004 232.702,30.713C232.702,33.799 233.421,34.849 231.529,34.849C225.525,34.849 227.779,38.382 230.29,38.409C232.03,38.427 232.702,38.122 232.702,39.492C232.702,40.862 232.26,48.298 232.702,50.933C232.985,52.614 234.681,54.918 235.356,55.304C236.754,56.102 238.759,56.771 241.615,56.665C243.519,56.593 242.357,53.397 241.615,53.122C237.773,52.477 236.862,50.823 236.862,47.73C236.862,43.865 237.162,39 237.466,38.726C237.908,38.328 241.927,39.215 241.927,36.959C241.927,34.84 237.466,36.19 237.466,34.497C237.466,32.661 237.338,28.865 237.35,27.128C237.351,26.947 237.466,26.092 237.046,25.481C236.442,24.605 235.86,23.942 235.036,24.019Z" style="fill:rgb(58,70,69);"/>
                </g>
                <g id="N" transform="matrix(1,0,0,1,-1,0)">
                    <path d="M211.898,37.96C207.663,39.181 208.517,40.497 210.712,43.962C210.718,43.972 210.728,43.981 210.731,43.993C211.371,46.164 210.921,46.958 210.921,50.729C210.921,54.032 209.142,53.128 209.142,55.095C209.142,56.609 211.465,56.883 215.549,56.883C218.246,56.883 218.584,54.049 216.445,53.285C215.88,53.083 215.48,52.348 215.313,51.754C214.798,49.919 214.731,48.945 215.104,46.351C215.34,44.707 215.263,43.759 219.415,43.759C221.286,43.759 222.95,43.195 223.369,48.007C223.912,54.235 222.769,52.547 221.773,54.363C221.225,55.362 221.758,56.581 225.867,56.581C229.976,56.581 230.084,55.072 229.627,54.032C228.879,52.329 227.783,53.737 227.698,50.729C227.695,50.607 227.693,50.478 227.693,50.341C227.693,48.985 227.207,45.194 226.794,43.962C226.069,41.796 224.562,40.491 222.934,40.153C220.524,39.652 217.417,39.922 215.34,39.582C213.718,39.317 213.289,37.56 211.898,37.96Z" style="fill:rgb(58,70,69);"/>
                </g>
                <path id="I" d="M199.983,39.618C199.326,40.073 196.436,41.48 196.744,44.499C196.901,46.042 199.136,45.738 199.136,46.695C199.136,47.652 199.313,49.963 199.136,51.386C198.859,53.607 195.98,53.068 196.744,55.609C197.268,57.355 205.519,57.261 205.853,55.609C206.729,51.282 203.218,53.996 203.176,51.044C203.135,48.19 203.49,40.764 203.176,39.618C202.957,38.816 200.637,39.164 199.983,39.618ZM202.213,29.198C198.539,31.758 198.482,33.443 199.493,34.631C202.678,38.371 205.397,33.075 205.485,32.103C205.574,31.131 203.801,28.091 202.213,29.198Z" style="fill:rgb(58,70,69);"/>
                <path id="A" d="M191.513,41.138C191.093,39.835 188.771,37.901 186.894,37.901C184.679,37.901 181.516,39.222 180.526,41.499C179.317,44.282 181.318,45.609 182.832,43.708C183.992,42.25 184.797,42.018 187.271,42.018C188.738,42.018 188.058,45.129 187.031,45.129C182.886,45.129 181.255,45.921 180.155,47.296C178.634,49.196 177.035,52.767 179.791,55.612C181.731,57.616 186.658,56.575 188.629,54.032C189.447,52.978 191.694,56.593 192.66,56.575C193.627,56.558 195.621,55.692 194.428,53.925C193.235,52.157 192.518,52.845 192.076,50.211C191.96,49.519 191.923,48.648 191.919,47.702C191.909,45.047 192.027,42.736 191.513,41.138ZM184.588,48.072C181.894,49.004 180.947,52.259 182.465,53.181C184.571,54.461 187.391,51.322 187.895,49.716C188.205,48.729 186.789,47.311 184.588,48.072Z" style="fill:rgb(58,70,69);"/>
                <path id="S" d="M178.307,17.78C176.51,17.411 175.411,18.769 172.87,18.99C170.329,19.211 155.293,17.95 153.37,30.455C151.731,41.112 171.609,35.709 171.609,46.855C171.609,54.06 158.052,51.901 155.357,47.309C154.651,46.105 151.819,49.432 151.731,51.738C151.642,54.044 153.099,56.709 154.292,55.587C155.485,54.465 156.81,53.871 160.062,55.066C161.63,55.641 173.893,58.913 176.231,49.94C178.378,41.704 173.88,39.096 170.585,36.853C166.006,33.737 157.513,33.694 158.351,30.455C160.038,23.926 167.857,21.995 172.87,23.793C174.732,24.46 172.342,30.455 175.401,30.455C178.307,30.455 180.122,18.152 178.307,17.78Z" style="fill:rgb(58,70,69);"/>
            </g>
            <g>
                <g id="R" transform="matrix(1,0,0,1,1,0)">
                    <path d="M119.85,41.174C120.082,41.767 121.16,42.688 121.205,45.861C121.259,49.773 120.886,54.198 121.205,55.587C121.444,56.631 124.667,56.457 125.353,55.228C125.902,54.245 125.409,47.863 125.353,46.882C125.215,44.424 125.96,44.152 127.316,44.152C128.527,44.152 129.7,45.483 130.386,45.861C131.784,46.631 133.123,43.606 130.908,42.18C130.143,41.687 128.709,40.491 127.169,40.285C125.734,40.093 124.61,40.931 123.917,40.285C122.998,39.429 122.093,39.544 121.507,39.616C120.084,39.794 119.619,40.582 119.85,41.174Z" style="fill:rgb(58,70,69);"/>
                </g>
                <path id="I1" serif:id="I" d="M117.126,40.308C116.415,38.554 110.504,41.421 110.944,43.472C111.221,44.768 111.882,44.067 112.986,44.768C113.77,45.267 113.393,49.102 113.393,50.432C113.393,54.098 110.911,51.451 110.911,54.647C110.911,55.991 112.992,56.077 114.724,56.077C116.456,56.077 118.549,55.764 118.801,54.814C118.886,54.492 119.028,53.065 118.695,52.563C118.177,51.782 116.902,52.841 117.399,49.94C117.491,49.407 117.606,41.491 117.126,40.308ZM115.084,36.538C116.041,36.538 118.325,34.567 118.325,32.835C118.325,28.455 115.54,29.931 115.084,30.228C109.353,33.961 112.721,36.538 115.084,36.538Z" style="fill:rgb(58,70,69);"/>
                <g id="M" transform="matrix(1,0,0,1,-1,0)">
                    <path d="M88.376,41.211C88.376,42.136 89.051,43.479 89.505,44.38C90.084,45.525 90.045,46.371 90.387,50.186C90.72,53.905 89.756,56.123 91.921,56.045C95.073,55.932 94.774,55.932 94.774,50.582C94.774,50.582 94.333,45.799 94.375,45.57C94.59,44.393 96.73,44.393 97.388,45.57C97.997,46.657 97.931,46.889 98.195,50.058C98.58,54.676 97.926,56.099 99.729,56.035C102.399,55.941 102.58,55.941 102.018,50.186C101.905,49.034 101.705,47.262 101.705,45.57C101.705,44.393 104.421,43.789 104.906,44.965C105.239,45.772 105.042,46.674 105.342,50.058C105.686,53.929 105.007,56.045 106.379,56.045C109.622,56.045 109.622,55.653 109.338,50.058C109.27,48.713 109.155,47.042 109.008,44.965C108.92,43.724 107.607,41.321 106.616,40.803C106.146,40.557 104.164,39.956 102.399,40.285C101.157,40.517 100.374,41.211 99.302,41.211C97.94,41.211 97.853,40.285 95.962,40.285C94.653,40.285 94.905,40.994 91.507,39.231C90.68,38.802 88.376,40.72 88.376,41.211Z" style="fill:rgb(58,70,69);"/>
                </g>
                <g id="I2" serif:id="I" transform="matrix(1,0,0,1,-1,0)">
                    <path d="M82.091,40.48C81.112,40.765 78.67,42.882 78.48,43.914C78.054,46.219 80.954,45.114 81.078,46.547C81.287,48.958 81.326,52.815 80.396,53.068C78.272,53.645 77.774,55.782 78.819,56.31C80.088,56.952 85.626,56.8 87.066,56.31C87.769,56.071 87.923,53.668 86.425,53.668C84.83,53.668 85.164,51.779 84.966,49.94C84.768,48.102 85.556,42.003 84.966,40.681C84.7,40.083 82.742,40.291 82.091,40.48ZM80.396,34.765C80.396,33.808 81.801,32.398 83.817,31.708C86.425,30.815 87.15,33.413 86.425,34.765C85.676,36.16 84.387,37.794 83.505,37.903C80.87,38.228 80.396,35.722 80.396,34.765Z" style="fill:rgb(58,70,69);"/>
                </g>
                <g id="D" transform="matrix(1,0,0,1,-1,0)">
                    <path d="M74.141,21.625C71.941,22.354 68.329,26.232 67.339,27.387C66.817,27.996 67.843,31.442 69.768,30.235C73.477,27.909 71.941,37.485 71.941,39.559C71.941,41.038 70.531,40.498 67.617,41.856C65.698,42.751 63.17,44.708 62.521,47.736C61.049,54.597 63.682,55.747 65.813,56.077C67.688,56.367 69.574,55.781 71.448,55.274C72.277,55.05 72.711,57.374 75.292,55.747C76.042,55.274 75.963,54.387 76.036,53.111C76.378,47.106 76.348,29.982 76.348,23.286C76.348,21.744 74.973,21.349 74.141,21.625ZM71.941,45.995C71.941,44.638 69.075,44.128 66.94,47.138C66.515,47.736 65.813,49.748 65.813,50.647C65.813,52.009 66.674,53.708 70.994,51.337C72.086,50.738 71.941,45.995 71.941,45.995Z" style="fill:rgb(58,70,69);"/>
                </g>
                <g id="A1" serif:id="A" transform="matrix(1,0,0,1,-0.999949,-0.0106888)">
                    <path d="M48.808,41.53C48.8,42.87 49.387,44.233 50.286,43.835C51.96,43.094 54.379,40.789 55.437,43.249C56.234,45.1 48.343,46.09 48.113,52.076C48.057,53.513 48.383,54.244 48.785,54.926C49.088,55.441 51.074,57.362 53.397,56.432C58.262,54.482 57.143,56.997 58.979,56.997C60.207,56.997 61.444,55.838 61.237,55.141C60.668,53.217 59.68,53.421 59.68,50.518C59.68,48.07 60.145,43.742 59.22,41.646C58.374,39.727 56.553,37.942 54.134,37.942C51.759,37.942 48.814,40.517 48.808,41.53ZM52.799,49.561C50.636,51.363 51.039,53.309 52.473,53.373C53.217,53.407 54.482,52.686 55.341,52.076C56.64,51.154 56.42,50.229 56.42,49.561C56.42,47.188 53.758,48.763 52.799,49.561Z" style="fill:rgb(58,70,69);"/>
                </g>
                <g id="L" transform="matrix(1,0,0,1,-2,0)">
                    <path d="M42.754,24.177C42.754,26.748 41.078,49.683 41.631,54.927C41.899,57.472 46.613,57.65 46.613,54.927C46.613,52.746 46.245,47.352 46.613,41.054C47.205,30.886 47.059,26.054 47.241,25.019C48.179,19.686 42.754,22.627 42.754,24.177Z" style="fill:rgb(58,70,69);"/>
                </g>
                <g id="V" transform="matrix(1,0,0,1,-2,0)">
                    <path d="M36.314,29.483C37.178,27.071 36.763,26.655 38.546,26.334C39.356,26.187 40.625,27.112 40.873,23.285C41.022,20.975 35.533,21.125 33.458,21.125C32.726,21.125 30.981,21.017 30.981,24.019C30.981,26.351 32.497,25.819 32.221,27.392C31.558,31.173 27.336,46.695 26.64,46.786C25.769,46.9 20.444,30.685 20.444,29.047C20.444,26.553 25.064,25.988 22.668,22.721C21.325,20.89 11.239,20.985 9.771,21.961C8.626,22.721 8.432,26.246 10.922,26.246C12.466,26.246 14.441,27.432 15.387,29.047C16.675,31.245 23.052,52.846 25.064,55.633C25.58,56.348 27.193,57.074 28.153,55.436C32.124,48.667 35.073,32.946 36.314,29.483Z" style="fill:rgb(58,70,69);"/>
                </g>
            </g>
        </g>
    </g>
</svg>
