<?xml version="1.0" encoding="UTF-8" standalone="no"?><!DOCTYPE svg PUBLIC "-//W3C//DTD SVG 1.1//EN" "http://www.w3.org/Graphics/SVG/1.1/DTD/svg11.dtd"><svg width="100%" height="100%" viewBox="0 0 289 60" version="1.1" xmlns="http://www.w3.org/2000/svg" xmlns:xlink="http://www.w3.org/1999/xlink" xml:space="preserve" xmlns:serif="http://www.serif.com/" style="fill-rule:evenodd;clip-rule:evenodd;stroke-linejoin:round;stroke-miterlimit:2;"><g><path id="Hand" d="M247.062,23.402c-0.574,-0.154 -1.572,-0.687 -3.288,0c-1.809,0.725 -2.508,5.494 -6.343,8.529c-1.936,1.532 -4.096,2.415 -6.634,2.671c-2.229,0.225 -3.56,4.274 -2.104,4.274c2.865,0 3.904,-0.178 5.918,-1.025c0.119,-0.05 0.235,-0.102 0.349,-0.157c3.363,-1.626 4.887,-3.424 5.632,-4.373c2.017,-2.565 3.385,-6.7 5.612,-6.7c1.821,0 1.587,0.621 3.423,5.103c0.597,1.458 -1.01,3.091 -1.836,5.233c-1.479,3.837 0.352,4.342 0.605,7.129c0.263,2.888 0.576,4.806 1.231,6.019c0.716,1.326 7.424,2.392 12.47,7.303c1.166,1.135 6.773,0.736 7.845,0.399c1.027,-0.324 1.797,-2.423 -1.415,-2.423c-1.021,0 -3.06,0.538 -4.982,-0.578c-0.31,-0.181 -2.423,-1.994 -4.92,-3.375c-2.738,-1.515 -5.178,-1.763 -6.503,-3.583c-1.381,-1.895 -1.569,-4.74 -1.779,-7.992c-0.24,-3.723 1.025,-3.723 2.625,-3.723c2.302,0 1.042,3.921 1.733,6.461c0.427,1.571 6.059,5.806 7.201,5.987c1.281,0.203 1.216,-1.024 2.523,-1.235c1.38,-0.223 15.89,11.646 16.95,12.236c2.951,1.642 8.266,-2.932 6.6,-5.862c-1.627,-2.863 -10.654,-11.141 -11.599,-12.533c-0.528,-0.778 -3.915,-9.116 -3.915,-13.135c0,-1.914 -2.087,-2.936 -2.113,-4.002c-0.025,-1.067 0.127,-3.252 -0.406,-3.277c-0.534,-0.026 -3.1,3.81 -4.421,3.277c-1.32,-0.534 -2.439,-1.296 -2.718,-0.534c-0.279,0.762 -0.965,5.589 -2.998,4.878c-2.032,-0.711 -2.921,-1.27 -2.641,-2.058c0.279,-0.788 9.373,-9.532 9.958,-9.704c0.662,-0.195 1.193,-1.499 4.573,1.803c3.302,3.278 6.878,5.685 6.878,7.745c0,4.217 -0.157,6.793 1.38,6.793c2.031,0 0.83,-4.483 1.422,-3.855c0.85,0.902 4.495,3.869 4.622,4.86c0.127,0.99 -1.473,7.016 -1.753,8.616c-0.279,1.601 0.965,2.643 1.753,1.906c0.788,-0.737 3.463,-10.418 2.675,-11.714c-0.787,-1.295 -14.7,-16.579 -18.324,-18.977c-2.146,-1.42 -3.445,-1.42 -14.428,9.593c-0.514,0.516 -2.099,1.42 -3.798,1.364c-2.135,-0.07 -4.452,-1.199 -5.06,-1.364Zm5.906,4.992c-0.797,-0.788 -0.846,2.412 0.343,3.537c3.846,3.637 6.011,7.521 7.881,8.96c4.797,3.691 9.459,6.892 11.012,8.099c5.484,4.261 9.451,7.961 10.585,7.961c0.588,0 3.202,-0.751 1.393,-2.784c-1.74,-1.956 -5.393,-6.079 -6.978,-7.484c-0.697,-0.618 -8.166,-7.279 -10.491,-9.432c-4.801,-4.448 -9.275,-4.437 -13.745,-8.857Zm17.075,4.159c-1.14,0.227 -3.92,4.021 0,2.424c1.251,-0.509 0.408,-2.505 0,-2.424Zm-6.948,-1.948c0,-0.812 2.263,-3.757 3.3,-3.984c1.343,-0.294 2.512,0.537 2.487,1.333c-0.024,0.797 -1.669,3.006 -2.633,3.448c-0.965,0.441 -3.154,0.286 -3.154,-0.797Z" style="fill:#f2f3f3;"/><g><path id="E" d="M228.673,34.516c1.672,0.16 1.718,0.094 3.31,0.031c2.086,-0.082 3.413,-0.293 4.182,0.589c0.993,1.14 -1.413,2.346 -2.625,2.968c-1.916,0.982 -6.238,1.214 -8.871,-0.262c-2.989,-1.675 -3.969,-4.396 -4.3,-5.865c-0.366,-1.621 -0.682,-6.234 1.311,-8.682c1.037,-1.273 2.751,-3.701 6.993,-3.807c4.242,-0.106 6.495,2.936 6.749,3.52c0.406,0.938 1.021,5.945 -2.249,6.808c-3.27,0.862 -7.853,-0.344 -8.504,1.222c-0.599,1.443 1.629,3.249 4.004,3.478Zm-0.996,-11.508c-4.787,1.723 -3.008,4.457 -1.152,4.237c2.62,-0.312 5.393,-0.193 5.458,-1.258c0.184,-2.979 -2.919,-3.478 -4.306,-2.979Z" style="fill:#f2f3f3;"/><path id="T" d="M212.077,6.302c-1.088,0.102 -4.698,2.21 -4.455,3.523c0.456,2.468 2.121,0.462 2.121,3.171c0,3.086 0.719,4.136 -1.173,4.136c-6.004,0 -3.75,3.533 -1.239,3.56c1.74,0.018 2.412,-0.287 2.412,1.083c0,1.37 -0.442,8.806 0,11.441c0.283,1.681 1.979,3.985 2.654,4.371c1.398,0.798 3.403,1.467 6.259,1.361c1.904,-0.072 0.742,-3.268 0,-3.543c-3.842,-0.645 -4.753,-2.299 -4.753,-5.392c0,-3.865 0.3,-8.73 0.604,-9.004c0.442,-0.398 4.461,0.489 4.461,-1.767c0,-2.119 -4.461,-0.769 -4.461,-2.462c0,-1.836 -0.128,-5.632 -0.116,-7.369c0.001,-0.181 0.116,-1.036 -0.304,-1.647c-0.604,-0.876 -1.186,-1.539 -2.01,-1.462Z" style="fill:#f2f3f3;"/><path id="N" d="M189.939,20.243c-4.235,1.221 -3.381,2.537 -1.186,6.002c0.006,0.01 0.016,0.019 0.019,0.031c0.64,2.171 0.19,2.965 0.19,6.736c0,3.303 -1.779,2.399 -1.779,4.366c0,1.514 2.323,1.788 6.407,1.788c2.697,0 3.035,-2.834 0.896,-3.598c-0.565,-0.202 -0.965,-0.937 -1.132,-1.531c-0.515,-1.835 -0.582,-2.809 -0.209,-5.403c0.236,-1.644 0.159,-2.592 4.311,-2.592c1.871,0 3.535,-0.564 3.954,4.248c0.543,6.228 -0.6,4.54 -1.596,6.356c-0.548,0.999 -0.015,2.218 4.094,2.218c4.109,0 4.217,-1.509 3.76,-2.549c-0.748,-1.703 -1.844,-0.295 -1.929,-3.303c-0.003,-0.122 -0.005,-0.251 -0.005,-0.388c0,-1.356 -0.486,-5.147 -0.899,-6.379c-0.725,-2.166 -2.232,-3.471 -3.86,-3.809c-2.41,-0.501 -5.517,-0.231 -7.594,-0.571c-1.622,-0.265 -2.051,-2.022 -3.442,-1.622Z" style="fill:#f2f3f3;"/><path id="I" d="M179.024,21.901c-0.657,0.455 -3.547,1.862 -3.239,4.881c0.157,1.543 2.392,1.239 2.392,2.196c0,0.957 0.177,3.268 0,4.691c-0.277,2.221 -3.156,1.682 -2.392,4.223c0.524,1.746 8.775,1.652 9.109,0c0.876,-4.327 -2.635,-1.613 -2.677,-4.565c-0.041,-2.854 0.314,-10.28 0,-11.426c-0.219,-0.802 -2.539,-0.454 -3.193,0Zm2.23,-10.42c-3.674,2.56 -3.731,4.245 -2.72,5.433c3.185,3.74 5.904,-1.556 5.992,-2.528c0.089,-0.972 -1.684,-4.012 -3.272,-2.905Z" style="fill:#f2f3f3;"/><path id="A" d="M170.554,23.421c-0.42,-1.303 -2.742,-3.237 -4.619,-3.237c-2.215,0 -5.378,1.321 -6.368,3.598c-1.209,2.783 0.792,4.11 2.306,2.209c1.16,-1.458 1.965,-1.69 4.439,-1.69c1.467,0 0.787,3.111 -0.24,3.111c-4.145,0 -5.776,0.792 -6.876,2.167c-1.521,1.9 -3.12,5.471 -0.364,8.316c1.94,2.004 6.867,0.963 8.838,-1.58c0.818,-1.054 3.065,2.561 4.031,2.543c0.967,-0.017 2.961,-0.883 1.768,-2.65c-1.193,-1.768 -1.91,-1.08 -2.352,-3.714c-0.116,-0.692 -0.153,-1.563 -0.157,-2.509c-0.01,-2.655 0.108,-4.966 -0.406,-6.564Zm-6.925,6.934c-2.694,0.932 -3.641,4.187 -2.123,5.109c2.106,1.28 4.926,-1.859 5.43,-3.465c0.31,-0.987 -1.106,-2.405 -3.307,-1.644Z" style="fill:#f2f3f3;"/><path id="S" d="M157.348,0.063c-1.797,-0.369 -2.896,0.989 -5.437,1.21c-2.541,0.221 -17.577,-1.04 -19.5,11.465c-1.639,10.657 18.239,5.254 18.239,16.4c0,7.205 -13.557,5.046 -16.252,0.454c-0.706,-1.204 -3.538,2.123 -3.626,4.429c-0.089,2.306 1.368,4.971 2.561,3.849c1.193,-1.122 2.518,-1.716 5.77,-0.521c1.568,0.575 13.831,3.847 16.169,-5.126c2.147,-8.236 -2.351,-10.844 -5.646,-13.087c-4.579,-3.116 -13.072,-3.159 -12.234,-6.398c1.687,-6.529 9.506,-8.46 14.519,-6.662c1.862,0.667 -0.528,6.662 2.531,6.662c2.906,0 4.721,-12.303 2.906,-12.675Z" style="fill:#f2f3f3;"/></g><g><path id="R" d="M113.891,23.457c0.232,0.593 1.31,1.514 1.355,4.687c0.054,3.912 -0.319,8.337 0,9.726c0.239,1.044 3.462,0.87 4.148,-0.359c0.549,-0.983 0.056,-7.365 0,-8.346c-0.138,-2.458 0.607,-2.73 1.963,-2.73c1.211,0 2.384,1.331 3.07,1.709c1.398,0.77 2.737,-2.255 0.522,-3.681c-0.765,-0.493 -2.199,-1.689 -3.739,-1.895c-1.435,-0.192 -2.559,0.646 -3.252,0c-0.919,-0.856 -1.824,-0.741 -2.41,-0.669c-1.423,0.178 -1.888,0.966 -1.657,1.558Z" style="fill:#f2f3f3;"/><path id="I1" serif:id="I" d="M110.167,22.591c-0.711,-1.754 -6.622,1.113 -6.182,3.164c0.277,1.296 0.938,0.595 2.042,1.296c0.784,0.499 0.407,4.334 0.407,5.664c0,3.666 -2.482,1.019 -2.482,4.215c0,1.344 2.081,1.43 3.813,1.43c1.732,0 3.825,-0.313 4.077,-1.263c0.085,-0.322 0.227,-1.749 -0.106,-2.251c-0.518,-0.781 -1.793,0.278 -1.296,-2.623c0.092,-0.533 0.207,-8.449 -0.273,-9.632Zm-2.042,-3.77c0.957,0 3.241,-1.971 3.241,-3.703c0,-4.38 -2.785,-2.904 -3.241,-2.607c-5.731,3.733 -2.363,6.31 0,6.31Z" style="fill:#f2f3f3;"/><path id="M" d="M80.417,23.494c0,0.925 0.675,2.268 1.129,3.169c0.579,1.145 0.54,1.991 0.882,5.806c0.333,3.719 -0.631,5.937 1.534,5.859c3.152,-0.113 2.853,-0.113 2.853,-5.463c0,0 -0.441,-4.783 -0.399,-5.012c0.215,-1.177 2.355,-1.177 3.013,0c0.609,1.087 0.543,1.319 0.807,4.488c0.385,4.618 -0.269,6.041 1.534,5.977c2.67,-0.094 2.851,-0.094 2.289,-5.849c-0.113,-1.152 -0.313,-2.924 -0.313,-4.616c0,-1.177 2.716,-1.781 3.201,-0.605c0.333,0.807 0.136,1.709 0.436,5.093c0.344,3.871 -0.335,5.987 1.037,5.987c3.243,0 3.243,-0.392 2.959,-5.987c-0.068,-1.345 -0.183,-3.016 -0.33,-5.093c-0.088,-1.241 -1.401,-3.644 -2.392,-4.162c-0.47,-0.246 -2.452,-0.847 -4.217,-0.518c-1.242,0.232 -2.025,0.926 -3.097,0.926c-1.362,0 -1.449,-0.926 -3.34,-0.926c-1.309,0 -1.057,0.709 -4.455,-1.054c-0.827,-0.429 -3.131,1.489 -3.131,1.98Z" style="fill:#f2f3f3;"/><path id="I2" serif:id="I" d="M74.132,22.763c-0.979,0.285 -3.421,2.402 -3.611,3.434c-0.426,2.305 2.474,1.2 2.598,2.633c0.209,2.411 0.248,6.268 -0.682,6.521c-2.124,0.577 -2.622,2.714 -1.577,3.242c1.269,0.642 6.807,0.49 8.247,0c0.703,-0.239 0.857,-2.642 -0.641,-2.642c-1.595,0 -1.261,-1.889 -1.459,-3.728c-0.198,-1.838 0.59,-7.937 0,-9.259c-0.266,-0.598 -2.224,-0.39 -2.875,-0.201Zm-1.695,-5.715c0,-0.957 1.405,-2.367 3.421,-3.057c2.608,-0.893 3.333,1.705 2.608,3.057c-0.749,1.395 -2.038,3.029 -2.92,3.138c-2.635,0.325 -3.109,-2.181 -3.109,-3.138Z" style="fill:#f2f3f3;"/><path id="D" d="M66.182,3.908c-2.2,0.729 -5.812,4.607 -6.802,5.762c-0.522,0.609 0.504,4.055 2.429,2.848c3.709,-2.326 2.173,7.25 2.173,9.324c0,1.479 -1.41,0.939 -4.324,2.297c-1.919,0.895 -4.447,2.852 -5.096,5.88c-1.472,6.861 1.161,8.011 3.292,8.341c1.875,0.29 3.761,-0.296 5.635,-0.803c0.829,-0.224 1.263,2.1 3.844,0.473c0.75,-0.473 0.671,-1.36 0.744,-2.636c0.342,-6.005 0.312,-23.129 0.312,-29.825c0,-1.542 -1.375,-1.937 -2.207,-1.661Zm-2.2,24.37c0,-1.357 -2.866,-1.867 -5.001,1.143c-0.425,0.598 -1.127,2.61 -1.127,3.509c0,1.362 0.861,3.061 5.181,0.69c1.092,-0.599 0.947,-5.342 0.947,-5.342Z" style="fill:#f2f3f3;"/><path id="A1" serif:id="A" d="M40.849,23.803c-0.008,1.34 0.579,2.703 1.478,2.305c1.674,-0.741 4.093,-3.046 5.151,-0.586c0.797,1.851 -7.094,2.841 -7.324,8.827c-0.056,1.437 0.27,2.168 0.672,2.85c0.303,0.515 2.289,2.436 4.612,1.506c4.865,-1.95 3.746,0.565 5.582,0.565c1.228,0 2.465,-1.159 2.258,-1.856c-0.569,-1.924 -1.557,-1.72 -1.557,-4.623c0,-2.448 0.465,-6.776 -0.46,-8.872c-0.846,-1.919 -2.667,-3.704 -5.086,-3.704c-2.375,0 -5.32,2.575 -5.326,3.588Zm3.991,8.031c-2.163,1.802 -1.76,3.748 -0.326,3.812c0.744,0.034 2.009,-0.687 2.868,-1.297c1.299,-0.922 1.079,-1.847 1.079,-2.515c0,-2.373 -2.662,-0.798 -3.621,0Z" style="fill:#f2f3f3;"/><path id="L" d="M33.795,6.46c0,2.571 -1.676,25.506 -1.123,30.75c0.268,2.545 4.982,2.723 4.982,0c0,-2.181 -0.368,-7.575 0,-13.873c0.592,-10.168 0.446,-15 0.628,-16.035c0.938,-5.333 -4.487,-2.392 -4.487,-0.842Z" style="fill:#f2f3f3;"/><path id="V" d="M27.355,11.766c0.864,-2.412 0.449,-2.828 2.232,-3.149c0.81,-0.147 2.079,0.778 2.327,-3.049c0.149,-2.31 -5.34,-2.16 -7.415,-2.16c-0.732,0 -2.477,-0.108 -2.477,2.894c0,2.332 1.516,1.8 1.24,3.373c-0.663,3.781 -4.885,19.303 -5.581,19.394c-0.871,0.114 -6.196,-16.101 -6.196,-17.739c0,-2.494 4.62,-3.059 2.224,-6.326c-1.343,-1.831 -11.429,-1.736 -12.897,-0.76c-1.145,0.76 -1.339,4.285 1.151,4.285c1.544,0 3.519,1.186 4.465,2.801c1.288,2.198 7.665,23.799 9.677,26.586c0.516,0.715 2.129,1.441 3.089,-0.197c3.971,-6.769 6.92,-22.49 8.161,-25.953Z" style="fill:#f2f3f3;"/></g></g></svg>